{
  "accessors": [
    {
      "bufferView": 2,
      "componentType": 5126,
      "count": 577,
      "max": [
        0.94999998807907104,
        0.48965999484062195,
        0.72737997770309448
      ],
      "min": [
        -0.27173998951911926,
        -0.29912000894546509,
        0.51011002063751221
      ],
      "type": "VEC3"
    },
    {
      "bufferView": 2,
      "byteOffset": 6924,
      "componentType": 5126,
      "count": 577,
      "max": [
        0.37759950757026672,
        0.99999904632568359,
        1
      ],
      "min": [
        -0.98788869380950928,
        -0.98626339435577393,
        -1
      ],
      "type": "VEC3"
    },
    {
      "bufferView": 3,
      "componentType": 5126,
      "count": 577,
      "max": [
        0,
        0,
        0,
        1
      ],
      "min": [
        0,
        0,
        0,
        1
      ],
      "type": "VEC4"
    },
    {
      "bufferView": 1,
      "componentType": 5126,
      "count": 577,
      "max": [
        0,
        0
      ],
      "min": [
        0,
        0
      ],
      "type": "VEC2"
    },
    {
      "bufferView": 0,
      "componentType": 5125,
      "count": 885,
      "max": [
        576
      ],
      "min": [
        0
      ],
      "type": "SCALAR"
    },
    {
      "bufferView": 2,
      "byteOffset": 13848,
      "componentType": 5126,
      "count": 35,
      "max": [
        -0.14469000697135925,
        0.42434000968933105,
        0.68563002347946167
      ],
      "min": [
        -0.26006001234054565,
        -0.2311599999666214,
        0.6445000171661377
      ],
      "type": "VEC3"
    },
    {
      "bufferView": 2,
      "byteOffset": 14268,
      "componentType": 5126,
      "count": 35,
      "max": [
        -0.97902208566665649,
        0.202940434217453,
        0.024319974705576897
      ],
      "min": [
        -0.99495893716812134,
        0.097289897501468658,
        -0.018190039321780205
      ],
      "type": "VEC3"
    },
    {
      "bufferView": 3,
      "byteOffset": 9232,
      "componentType": 5126,
      "count": 35,
      "max": [
        0,
        0,
        0,
        1
      ],
      "min": [
        0,
        0,
        0,
        1
      ],
      "type": "VEC4"
    },
    {
      "bufferView": 1,
      "byteOffset": 4616,
      "componentType": 5126,
      "count": 35,
      "max": [
        0,
        0
      ],
      "min": [
        0,
        0
      ],
      "type": "VEC2"
    },
    {
      "bufferView": 0,
      "byteOffset": 3540,
      "componentType": 5125,
      "count": 63,
      "max": [
        34
      ],
      "min": [
        0
      ],
      "type": "SCALAR"
    },
    {
      "bufferView": 2,
      "byteOffset": 14688,
      "componentType": 5126,
      "count": 50,
      "max": [
        0.84609001874923706,
        -0.29754000902175903,
        0.75231999158859253
      ],
      "min": [
        -0.30952998995780945,
        -0.51008999347686768,
        0.4828999936580658
      ],
      "type": "VEC3"
    },
    {
      "bufferView": 2,
      "byteOffset": 15288,
      "componentType": 5126,
      "count": 50,
      "max": [
        0.99009639024734497,
        0.99999904632568359,
        1
      ],
      "min": [
        -0.98410648107528687,
        -0.99999606609344482,
        -1
      ],
      "type": "VEC3"
    },
    {
      "bufferView": 3,
      "byteOffset": 9792,
      "componentType": 5126,
      "count": 50,
      "max": [
        0,
        0,
        0,
        1
      ],
      "min": [
        0,
        0,
        0,
        1
      ],
      "type": "VEC4"
    },
    {
      "bufferView": 1,
      "byteOffset": 4896,
      "componentType": 5126,
      "count": 50,
      "max": [
        0,
        0
      ],
      "min": [
        0,
        0
      ],
      "type": "VEC2"
    },
    {
      "bufferView": 0,
      "byteOffset": 3792,
      "componentType": 5125,
      "count": 96,
      "max": [
        49
      ],
      "min": [
        0
      ],
      "type": "SCALAR"
    },
    {
      "bufferView": 2,
      "byteOffset": 15888,
      "componentType": 5126,
      "count": 197,
      "max": [
        -0.15647999942302704,
        0.40518000721931458,
        0.58069998025894165
      ],
      "min": [
        -0.26787999272346497,
        -0.21797999739646912,
        0.55704998970031738
      ],
      "type": "VEC3"
    },
    {
      "bufferView": 2,
      "byteOffset": 18252,
      "componentType": 5126,
      "count": 197,
      "max": [
        -0.98485153913497925,
        0.17340026795864105,
        6.0000227676937357e-05
      ],
      "min": [
        -0.98487800359725952,
        0.17324964702129364,
        -0.00011999961134279147
      ],
      "type": "VEC3"
    },
    {
      "bufferView": 3,
      "byteOffset": 10592,
      "componentType": 5126,
      "count": 197,
      "max": [
        0,
        0,
        0,
        1
      ],
      "min": [
        0,
        0,
        0,
        1
      ],
      "type": "VEC4"
    },
    {
      "bufferView": 1,
      "byteOffset": 5296,
      "componentType": 5126,
      "count": 197,
      "max": [
        0,
        0
      ],
      "min": [
        0,
        0
      ],
      "type": "VEC2"
    },
    {
      "bufferView": 0,
      "byteOffset": 4176,
      "componentType": 5125,
      "count": 234,
      "max": [
        196
      ],
      "min": [
        0
      ],
      "type": "SCALAR"
    },
    {
      "bufferView": 2,
      "byteOffset": 20616,
      "componentType": 5126,
      "count": 8,
      "max": [
        0.94999998807907104,
        0.30072999000549316,
        0.72737997770309448
      ],
      "min": [
        0.84609001874923706,
        -0.29912000894546509,
        0.51011002063751221
      ],
      "type": "VEC3"
    },
    {
      "bufferView": 2,
      "byteOffset": 20712,
      "componentType": 5126,
      "count": 8,
      "max": [
        0.9853249192237854,
        -0.17068912088871002,
        0
      ],
      "min": [
        0.9853249192237854,
        -0.17068912088871002,
        0
      ],
      "type": "VEC3"
    },
    {
      "bufferView": 3,
      "byteOffset": 13744,
      "componentType": 5126,
      "count": 8,
      "max": [
        0.17068913578987122,
        0.98532503843307495,
        0,
        1
      ],
      "min": [
        0.17068912088871002,
        0.9853249192237854,
        -4.3576806092460174e-06,
        1
      ],
      "type": "VEC4"
    },
    {
      "bufferView": 1,
      "byteOffset": 6872,
      "componentType": 5126,
      "count": 8,
      "max": [
        0.95082998275756836,
        0.92281001806259155
      ],
      "min": [
        0.10141000151634216,
        0.1025099977850914
      ],
      "type": "VEC2"
    },
    {
      "bufferView": 0,
      "byteOffset": 5112,
      "componentType": 5125,
      "count": 18,
      "max": [
        7
      ],
      "min": [
        0
      ],
      "type": "SCALAR"
    },
    {
      "bufferView": 2,
      "byteOffset": 20808,
      "componentType": 5126,
      "count": 320,
      "max": [
        1,
        1,
        0
      ],
      "min": [
        -1,
        -1,
        -0.021469999104738235
      ],
      "type": "VEC3"
    },
    {
      "bufferView": 2,
      "byteOffset": 24648,
      "componentType": 5126,
      "count": 320,
      "max": [
        0.99518442153930664,
        0.99518442153930664,
        0
      ],
      "min": [
        -0.99518442153930664,
        -0.99518442153930664,
        -1
      ],
      "type": "VEC3"
    },
    {
      "bufferView": 3,
      "byteOffset": 13872,
      "componentType": 5126,
      "count": 320,
      "max": [
        0.95696800947189331,
        0,
        0,
        1
      ],
      "min": [
        0,
        -0.2903868556022644,
        0,
        -1
      ],
      "type": "VEC4"
    },
    {
      "bufferView": 1,
      "byteOffset": 6936,
      "componentType": 5126,
      "count": 320,
      "max": [
        0.99989998340606689,
        0.99989998340606689
      ],
      "min": [
        9.9999997473787516e-05,
        9.9999997473787516e-05
      ],
      "type": "VEC2"
    },
    {
      "bufferView": 0,
      "byteOffset": 5184,
      "componentType": 5125,
      "count": 576,
      "max": [
        319
      ],
      "min": [
        0
      ],
      "type": "SCALAR"
    },
    {
      "bufferView": 2,
      "byteOffset": 28488,
      "componentType": 5126,
      "count": 64,
      "max": [
        1,
        1,
        -0.021469999104738235
      ],
      "min": [
        -1,
        -1,
        -0.021469999104738235
      ],
      "type": "VEC3"
    },
    {
      "bufferView": 2,
      "byteOffset": 29256,
      "componentType": 5126,
      "count": 64,
      "max": [
        0,
        0,
        1
      ],
      "min": [
        0,
        0,
        1
      ],
      "type": "VEC3"
    },
    {
      "bufferView": 3,
      "byteOffset": 18992,
      "componentType": 5126,
      "count": 64,
      "max": [
        0.95696800947189331,
        -0.29019361734390259,
        0,
        1
      ],
      "min": [
        0.95690935850143433,
        -0.2903868556022644,
        0,
        1
      ],
      "type": "VEC4"
    },
    {
      "bufferView": 1,
      "byteOffset": 9496,
      "componentType": 5126,
      "count": 64,
      "max": [
        0.99989998340606689,
        0.99989998340606689
      ],
      "min": [
        9.9999997473787516e-05,
        9.9999997473787516e-05
      ],
      "type": "VEC2"
    },
    {
      "bufferView": 0,
      "byteOffset": 7488,
      "componentType": 5125,
      "count": 192,
      "max": [
        63
      ],
      "min": [
        0
      ],
      "type": "SCALAR"
    }
  ],
  "asset": {
    "extras": {
      "author": "lazercar (https://sketchfab.com/lazercar)",
      "license": "CC-BY-SA-4.0 (http://creativecommons.org/licenses/by-sa/4.0/)",
      "source": "https://sketchfab.com/models/f2f30aa248c64c4ba542115fce2a5e13",
      "title": "Nintendo Wii"
    },
    "generator": "Sketchfab-3.34.3",
    "version": "2.0"
  },
  "bufferViews": [
    {
      "buffer": 0,
      "byteLength": 8256,
      "byteOffset": 0,
      "name": "floatBufferViews",
      "target": 34963
    },
    {
      "buffer": 0,
      "byteLength": 10008,
      "byteOffset": 8256,
      "byteStride": 8,
      "name": "floatBufferViews",
      "target": 34962
    },
    {
      "buffer": 0,
      "byteLength": 30024,
      "byteOffset": 18264,
      "byteStride": 12,
      "name": "floatBufferViews",
      "target": 34962
    },
    {
      "buffer": 0,
      "byteLength": 20016,
      "byteOffset": 48288,
      "byteStride": 16,
      "name": "floatBufferViews",
      "target": 34962
    }
  ],
  "buffers": [
    {
      "byteLength": 68304,
      "uri": "scene.bin"
    }
  ],
  "extensionsRequired": [
    "KHR_materials_pbrSpecularGlossiness"
  ],
  "extensionsUsed": [
    "KHR_materials_pbrSpecularGlossiness"
  ],
  "images": [
    {
      "uri": "textures/Material.002_diffuse.jpeg"
    },
    {
      "uri": "textures/Material.001_diffuse.jpeg"
    }
  ],
  "materials": [
    {
      "doubleSided": true,
      "extensions": {
        "KHR_materials_pbrSpecularGlossiness": {
          "diffuseFactor": [
            1,
            1,
            1,
            1
          ],
          "diffuseTexture": {
            "index": 0,
            "texCoord": 0
          },
          "glossinessFactor": 0.77610518289999997,
          "specularFactor": [
            0,
            0,
            0
          ]
        }
      },
      "name": "Material.002"
    },
    {
      "doubleSided": true,
      "extensions": {
        "KHR_materials_pbrSpecularGlossiness": {
          "diffuseFactor": [
            1,
            1,
            1,
            1
          ],
          "glossinessFactor": 1,
          "specularFactor": [
            0.80000001190000003,
            0.80000001190000003,
            0.80000001190000003
          ]
        }
      },
      "name": "Material.004"
    },
    {
      "doubleSided": true,
      "extensions": {
        "KHR_materials_pbrSpecularGlossiness": {
          "diffuseFactor": [
            1,
            0.98996368810000002,
            0.98996368810000002,
            1
          ],
          "glossinessFactor": 0.89462652440000001,
          "specularFactor": [
            1,
            1,
            1
          ]
        }
      },
      "name": "white_body"
    },
    {
      "doubleSided": true,
      "emissiveFactor": [
        0.23222879964899568,
        0.83719114496771352,
        1
      ],
      "extensions": {
        "KHR_materials_pbrSpecularGlossiness": {
          "diffuseFactor": [
            0,
            0.45941442850000003,
            1,
            1
          ],
          "glossinessFactor": 1,
          "specularFactor": [
            0,
            0.16460807969999999,
            1
          ]
        }
      },
      "name": "glow"
    },
    {
      "doubleSided": true,
      "extensions": {
        "KHR_materials_pbrSpecularGlossiness": {
          "diffuseFactor": [
            0.23944218219999999,
            0.20424449250000001,
            0.20424449250000001,
            1
          ],
          "glossinessFactor": 0.82145579270000002,
          "specularFactor": [
            0.80000001190000003,
            0.80000001190000003,
            0.80000001190000003
          ]
        }
      },
      "name": "base"
    },
    {
      "doubleSided": true,
      "extensions": {
        "KHR_materials_pbrSpecularGlossiness": {
          "diffuseFactor": [
            0.49203814099999998,
            0.41784328570000001,
            0.41784328570000001,
            1
          ],
          "glossinessFactor": 0.82755335369999994,
          "specularFactor": [
            0.10829236,
            0.1063058333,
            0.1063058333
          ]
        }
      },
      "name": "Material.003"
    },
    {
      "doubleSided": true,
      "extensions": {
        "KHR_materials_pbrSpecularGlossiness": {
          "diffuseFactor": [
            1,
            1,
            1,
            1
          ],
          "diffuseTexture": {
            "index": 1,
            "texCoord": 0
          },
          "glossinessFactor": 0.64462652440000001,
          "specularFactor": [
            0.020742511599999999,
            0.0200982574,
            0.0200982574
          ]
        }
      },
      "name": "Material.001"
    }
  ],
  "meshes": [
    {
      "name": "Plane.001_0",
      "primitives": [
        {
          "attributes": {
            "NORMAL": 1,
            "POSITION": 0,
            "TANGENT": 2,
            "TEXCOORD_0": 3
          },
          "indices": 4,
          "material": 2,
          "mode": 4
        }
      ]
    },
    {
      "name": "Plane.001_1",
      "primitives": [
        {
          "attributes": {
            "NORMAL": 6,
            "POSITION": 5,
            "TANGENT": 7,
            "TEXCOORD_0": 8
          },
          "indices": 9,
          "material": 3,
          "mode": 4
        }
      ]
    },
    {
      "name": "Plane.001_2",
      "primitives": [
        {
          "attributes": {
            "NORMAL": 11,
            "POSITION": 10,
            "TANGENT": 12,
            "TEXCOORD_0": 13
          },
          "indices": 14,
          "material": 4,
          "mode": 4
        }
      ]
    },
    {
      "name": "Plane.001_3",
      "primitives": [
        {
          "attributes": {
            "NORMAL": 16,
            "POSITION": 15,
            "TANGENT": 17,
            "TEXCOORD_0": 18
          },
          "indices": 19,
          "material": 5,
          "mode": 4
        }
      ]
    },
    {
      "name": "Plane.001_4",
      "primitives": [
        {
          "attributes": {
            "NORMAL": 21,
            "POSITION": 20,
            "TANGENT": 22,
            "TEXCOORD_0": 23
          },
          "indices": 24,
          "material": 6,
          "mode": 4
        }
      ]
    },
    {
      "name": "Circle_0",
      "primitives": [
        {
          "attributes": {
            "NORMAL": 26,
            "POSITION": 25,
            "TANGENT": 27,
            "TEXCOORD_0": 28
          },
          "indices": 29,
          "material": 0,
          "mode": 4
        }
      ]
    },
    {
      "name": "Circle_1",
      "primitives": [
        {
          "attributes": {
            "NORMAL": 31,
            "POSITION": 30,
            "TANGENT": 32,
            "TEXCOORD_0": 33
          },
          "indices": 34,
          "material": 1,
          "mode": 4
        }
      ]
    }
  ],
  "nodes": [
    {
      "children": [
        1
      ],
      "name": "RootNode (gltf orientation matrix)",
      "rotation": [
        -0.70710678118654746,
        -0,
        -0,
        0.70710678118654757
      ]
    },
    {
      "children": [
        2
      ],
      "name": "RootNode (model correction matrix)"
    },
    {
      "children": [
        3,
        5,
        11
      ],
      "name": "Root"
    },
    {
      "children": [
        4
      ],
      "matrix": [
        -0.91861000000000004,
        0.37883000000000006,
        -0.11246000000000002,
        0,
        -0.28476000000000001,
        -0.83189000000000013,
        -0.47631000000000007,
        0,
        -0.27399000000000001,
        -0.40552000000000005,
        0.8720500000000001,
        0,
        -3.5344499999999996,
        1.00545,
        5.9038600000000008,
        1
      ],
      "name": "Lamp"
    },
    {
      "name": "Lamp"
    },
    {
      "children": [
        6,
        7,
        8,
        9,
        10
      ],
      "matrix": [
        4.0162200000000006,
        0,
        0,
        0,
        0,
        -0,
        4.0162200000000006,
        0,
        0,
        -4.0162200000000006,
        -0,
        0,
        0,
        4.971540000000001,
        0,
        1
      ],
      "name": "Plane.001"
    },
    {
      "mesh": 0,
      "name": "Plane.001_0"
    },
    {
      "mesh": 1,
      "name": "Plane.001_1"
    },
    {
      "mesh": 2,
      "name": "Plane.001_2"
    },
    {
      "mesh": 3,
      "name": "Plane.001_3"
    },
    {
      "mesh": 4,
      "name": "Plane.001_4"
    },
    {
      "children": [
        12,
        13
      ],
      "matrix": [
        0.99407000000000001,
        0.029550000000000007,
        0.10469000000000002,
        0,
        -0.10878000000000002,
        0.27001000000000003,
        0.95669000000000015,
        0,
        -0,
        -0.96240999999999999,
        0.27162000000000003,
        0,
        0.14952000000000001,
        1.6781000000000001,
        -1.4086699999999999,
        1
      ],
      "name": "Circle"
    },
    {
      "mesh": 5,
      "name": "Circle_0"
    },
    {
      "mesh": 6,
      "name": "Circle_1"
    }
  ],
  "samplers": [
    {
      "magFilter": 9729,
      "minFilter": 9987,
      "wrapS": 10497,
      "wrapT": 10497
    }
  ],
  "scene": 0,
  "scenes": [
    {
      "name": "OSG_Scene",
      "nodes": [
        0
      ]
    }
  ],
  "textures": [
    {
      "sampler": 0,
      "source": 0
    },
    {
      "sampler": 0,
      "source": 1
    }
  ]
}

