{
  "accessors": [
    {
      "bufferView": 2,
      "componentType": 5126,
      "count": 6021,
      "max": [
        6.8861422538757324,
        2.3227469921112061,
        4.892632007598877
      ],
      "min": [
        -6.7540378570556641,
        0.010905623435974121,
        -5.2519779205322266
      ],
      "type": "VEC3"
    },
    {
      "bufferView": 2,
      "byteOffset": 72252,
      "componentType": 5126,
      "count": 6021,
      "max": [
        1,
        1,
        1
      ],
      "min": [
        -1,
        -1,
        -1
      ],
      "type": "VEC3"
    },
    {
      "bufferView": 3,
      "componentType": 5126,
      "count": 6021,
      "max": [
        1,
        1,
        1,
        1
      ],
      "min": [
        -0.6417992115020752,
        -1,
        -1,
        1
      ],
      "type": "VEC4"
    },
    {
      "bufferView": 1,
      "componentType": 5126,
      "count": 6021,
      "max": [
        0.9080432653427124,
        0.97998338937759399
      ],
      "min": [
        0.001812442671507597,
        0.0019920188933610916
      ],
      "type": "VEC2"
    },
    {
      "bufferView": 0,
      "componentType": 5125,
      "count": 27438,
      "max": [
        6020
      ],
      "min": [
        0
      ],
      "type": "SCALAR"
    },
    {
      "bufferView": 2,
      "byteOffset": 144504,
      "componentType": 5126,
      "count": 4864,
      "max": [
        5.1679320335388184,
        4.5147404670715332,
        4.6454391479492188
      ],
      "min": [
        2.90574049949646,
        0.010905623435974121,
        -5.2519783973693848
      ],
      "type": "VEC3"
    },
    {
      "bufferView": 2,
      "byteOffset": 202872,
      "componentType": 5126,
      "count": 4864,
      "max": [
        1,
        1,
        1
      ],
      "min": [
        -1,
        -1,
        -1
      ],
      "type": "VEC3"
    },
    {
      "bufferView": 3,
      "byteOffset": 96336,
      "componentType": 5126,
      "count": 4864,
      "max": [
        1,
        1,
        1,
        1
      ],
      "min": [
        -0.4404967725276947,
        -1,
        -1,
        1
      ],
      "type": "VEC4"
    },
    {
      "bufferView": 0,
      "byteOffset": 109752,
      "componentType": 5125,
      "count": 11844,
      "max": [
        4863
      ],
      "min": [
        0
      ],
      "type": "SCALAR"
    },
    {
      "bufferView": 2,
      "byteOffset": 261240,
      "componentType": 5126,
      "count": 6353,
      "max": [
        6.8861422538757324,
        4.5147409439086914,
        4.7616772651672363
      ],
      "min": [
        -6.7540378570556641,
        2.322746753692627,
        -5.2519779205322266
      ],
      "type": "VEC3"
    },
    {
      "bufferView": 2,
      "byteOffset": 337476,
      "componentType": 5126,
      "count": 6353,
      "max": [
        1,
        1,
        1
      ],
      "min": [
        -1,
        -1,
        -1
      ],
      "type": "VEC3"
    },
    {
      "bufferView": 3,
      "byteOffset": 174160,
      "componentType": 5126,
      "count": 6353,
      "max": [
        1,
        1,
        1,
        1
      ],
      "min": [
        -0.38269579410552979,
        -1,
        -1,
        1
      ],
      "type": "VEC4"
    },
    {
      "bufferView": 1,
      "byteOffset": 48168,
      "componentType": 5126,
      "count": 6353,
      "max": [
        0.8670881986618042,
        0.9962533712387085
      ],
      "min": [
        0.0018124758498743176,
        0.0019920188933610916
      ],
      "type": "VEC2"
    },
    {
      "bufferView": 0,
      "byteOffset": 157128,
      "componentType": 5125,
      "count": 24168,
      "max": [
        6352
      ],
      "min": [
        0
      ],
      "type": "SCALAR"
    },
    {
      "bufferView": 2,
      "byteOffset": 413712,
      "componentType": 5126,
      "count": 20,
      "max": [
        -4.7982244491577148,
        1.1730434894561768,
        4.6705408096313477
      ],
      "min": [
        -4.8532633781433105,
        1.1104658842086792,
        4.6584539413452148
      ],
      "type": "VEC3"
    },
    {
      "bufferView": 2,
      "byteOffset": 413952,
      "componentType": 5126,
      "count": 20,
      "max": [
        1,
        1,
        1
      ],
      "min": [
        -0.99999994039535522,
        -1,
        -8.3758942537315306e-07
      ],
      "type": "VEC3"
    },
    {
      "bufferView": 3,
      "byteOffset": 275808,
      "componentType": 5126,
      "count": 20,
      "max": [
        1,
        2.1314265268301824e-06,
        1,
        1
      ],
      "min": [
        -3.9452403143513948e-05,
        -2.1659686808561673e-06,
        -1,
        1
      ],
      "type": "VEC4"
    },
    {
      "bufferView": 0,
      "byteOffset": 253800,
      "componentType": 5125,
      "count": 30,
      "max": [
        19
      ],
      "min": [
        0
      ],
      "type": "SCALAR"
    },
    {
      "bufferView": 2,
      "byteOffset": 414192,
      "componentType": 5126,
      "count": 239,
      "max": [
        6.6163091659545898,
        1.7988288402557373,
        -2.6317300796508789
      ],
      "min": [
        6.4376296997070312,
        1.5879693031311035,
        -2.8425889015197754
      ],
      "type": "VEC3"
    },
    {
      "bufferView": 2,
      "byteOffset": 417060,
      "componentType": 5126,
      "count": 239,
      "max": [
        1,
        1,
        1
      ],
      "min": [
        -7.7454624261008576e-06,
        -1,
        -1
      ],
      "type": "VEC3"
    },
    {
      "bufferView": 3,
      "byteOffset": 276128,
      "componentType": 5126,
      "count": 239,
      "max": [
        0.99992001056671143,
        1,
        0.50614833831787109,
        1
      ],
      "min": [
        -0.99992001056671143,
        -0.054618056863546371,
        -0.48273134231567383,
        -1
      ],
      "type": "VEC4"
    },
    {
      "bufferView": 0,
      "byteOffset": 253920,
      "componentType": 5125,
      "count": 900,
      "max": [
        238
      ],
      "min": [
        0
      ],
      "type": "SCALAR"
    },
    {
      "bufferView": 2,
      "byteOffset": 419928,
      "componentType": 5126,
      "count": 21,
      "max": [
        6.3023567199707031,
        1.8178474903106689,
        -2.6127109527587891
      ],
      "min": [
        6.3023567199707031,
        1.5689506530761719,
        -2.8616077899932861
      ],
      "type": "VEC3"
    },
    {
      "bufferView": 2,
      "byteOffset": 420180,
      "componentType": 5126,
      "count": 21,
      "max": [
        -1,
        1.2454273019102402e-05,
        0
      ],
      "min": [
        -1,
        -1.2454198440536857e-05,
        0
      ],
      "type": "VEC3"
    },
    {
      "bufferView": 3,
      "byteOffset": 279952,
      "componentType": 5126,
      "count": 21,
      "max": [
        1.2453388080757577e-05,
        1,
        0.039969764649868011,
        1
      ],
      "min": [
        -1.2453315321181435e-05,
        0.99920088052749634,
        -0.03996976837515831,
        1
      ],
      "type": "VEC4"
    },
    {
      "bufferView": 0,
      "byteOffset": 257520,
      "componentType": 5125,
      "count": 60,
      "max": [
        20
      ],
      "min": [
        0
      ],
      "type": "SCALAR"
    },
    {
      "bufferView": 2,
      "byteOffset": 420432,
      "componentType": 5126,
      "count": 143,
      "max": [
        6.6168270111083984,
        1.8178474903106689,
        -2.6127109527587891
      ],
      "min": [
        6.3023567199707031,
        1.5689506530761719,
        -2.8616077899932861
      ],
      "type": "VEC3"
    },
    {
      "bufferView": 2,
      "byteOffset": 422148,
      "componentType": 5126,
      "count": 143,
      "max": [
        0.92711889743804932,
        1,
        1
      ],
      "min": [
        -2.1497913849088945e-07,
        -1,
        -1
      ],
      "type": "VEC3"
    },
    {
      "bufferView": 3,
      "byteOffset": 280288,
      "componentType": 5126,
      "count": 143,
      "max": [
        0.37476328015327454,
        1,
        1,
        1
      ],
      "min": [
        -0.37477323412895203,
        -1,
        -1,
        1
      ],
      "type": "VEC4"
    },
    {
      "bufferView": 1,
      "byteOffset": 98992,
      "componentType": 5126,
      "count": 143,
      "max": [
        0.65625,
        0.68843984603881836
      ],
      "min": [
        0.34374997019767761,
        -7.4505805969238281e-08
      ],
      "type": "VEC2"
    },
    {
      "bufferView": 0,
      "byteOffset": 257760,
      "componentType": 5125,
      "count": 480,
      "max": [
        142
      ],
      "min": [
        0
      ],
      "type": "SCALAR"
    },
    {
      "bufferView": 2,
      "byteOffset": 423864,
      "componentType": 5126,
      "count": 239,
      "max": [
        6.6163091659545898,
        1.7988288402557373,
        -3.1209025382995605
      ],
      "min": [
        6.4376296997070312,
        1.5879693031311035,
        -3.331761360168457
      ],
      "type": "VEC3"
    },
    {
      "bufferView": 2,
      "byteOffset": 426732,
      "componentType": 5126,
      "count": 239,
      "max": [
        1,
        1,
        1
      ],
      "min": [
        -8.0415293268742971e-06,
        -1,
        -1
      ],
      "type": "VEC3"
    },
    {
      "bufferView": 3,
      "byteOffset": 282576,
      "componentType": 5126,
      "count": 239,
      "max": [
        0.99992001056671143,
        1,
        0.5061415433883667,
        1
      ],
      "min": [
        -0.99992001056671143,
        -0.054618723690509796,
        -0.48273521661758423,
        -1
      ],
      "type": "VEC4"
    },
    {
      "bufferView": 0,
      "byteOffset": 259680,
      "componentType": 5125,
      "count": 900,
      "max": [
        238
      ],
      "min": [
        0
      ],
      "type": "SCALAR"
    },
    {
      "bufferView": 2,
      "byteOffset": 429600,
      "componentType": 5126,
      "count": 21,
      "max": [
        6.3023567199707031,
        1.8178474903106689,
        -3.1018834114074707
      ],
      "min": [
        6.3023567199707031,
        1.5689506530761719,
        -3.3507802486419678
      ],
      "type": "VEC3"
    },
    {
      "bufferView": 2,
      "byteOffset": 429852,
      "componentType": 5126,
      "count": 21,
      "max": [
        -1,
        1.2454304851416964e-05,
        0
      ],
      "min": [
        -1,
        -1.2454262105165981e-05,
        0
      ],
      "type": "VEC3"
    },
    {
      "bufferView": 3,
      "byteOffset": 286400,
      "componentType": 5126,
      "count": 21,
      "max": [
        1.2453420822566841e-05,
        1,
        0.039969634264707565,
        1
      ],
      "min": [
        -1.2453378076315857e-05,
        0.99920088052749634,
        -0.039969637989997864,
        1
      ],
      "type": "VEC4"
    },
    {
      "bufferView": 0,
      "byteOffset": 263280,
      "componentType": 5125,
      "count": 60,
      "max": [
        20
      ],
      "min": [
        0
      ],
      "type": "SCALAR"
    },
    {
      "bufferView": 2,
      "byteOffset": 430104,
      "componentType": 5126,
      "count": 143,
      "max": [
        6.6168270111083984,
        1.8178474903106689,
        -3.1018834114074707
      ],
      "min": [
        6.3023567199707031,
        1.5689506530761719,
        -3.3507802486419678
      ],
      "type": "VEC3"
    },
    {
      "bufferView": 2,
      "byteOffset": 431820,
      "componentType": 5126,
      "count": 143,
      "max": [
        0.92711889743804932,
        1,
        1
      ],
      "min": [
        -4.8379303052570322e-07,
        -1,
        -1
      ],
      "type": "VEC3"
    },
    {
      "bufferView": 3,
      "byteOffset": 286736,
      "componentType": 5126,
      "count": 143,
      "max": [
        0.37476769089698792,
        1,
        1,
        1
      ],
      "min": [
        -0.37477105855941772,
        -1,
        -1,
        1
      ],
      "type": "VEC4"
    },
    {
      "bufferView": 1,
      "byteOffset": 100136,
      "componentType": 5126,
      "count": 143,
      "max": [
        0.65625,
        0.68843984603881836
      ],
      "min": [
        0.34374997019767761,
        -7.4505805969238281e-08
      ],
      "type": "VEC2"
    },
    {
      "bufferView": 0,
      "byteOffset": 263520,
      "componentType": 5125,
      "count": 480,
      "max": [
        142
      ],
      "min": [
        0
      ],
      "type": "SCALAR"
    }
  ],
  "asset": {
    "extras": {
      "author": "mjgriffis01 (https://sketchfab.com/mjgriffis01)",
      "license": "CC-BY-4.0 (http://creativecommons.org/licenses/by/4.0/)",
      "source": "https://sketchfab.com/models/a0ea940052974d1eaf109c88565c03e3",
      "title": "NES"
    },
    "generator": "Sketchfab-3.18.7",
    "version": "2.0"
  },
  "bufferViews": [
    {
      "buffer": 0,
      "byteLength": 265440,
      "byteOffset": 0,
      "name": "floatBufferViews",
      "target": 34963
    },
    {
      "buffer": 0,
      "byteLength": 101280,
      "byteOffset": 265440,
      "byteStride": 8,
      "name": "floatBufferViews",
      "target": 34962
    },
    {
      "buffer": 0,
      "byteLength": 433536,
      "byteOffset": 366720,
      "byteStride": 12,
      "name": "floatBufferViews",
      "target": 34962
    },
    {
      "buffer": 0,
      "byteLength": 289024,
      "byteOffset": 800256,
      "byteStride": 16,
      "name": "floatBufferViews",
      "target": 34962
    }
  ],
  "buffers": [
    {
      "byteLength": 1089280,
      "uri": "scene.bin"
    }
  ],
  "images": [
    {
      "uri": "NES_AV_S_Mat_baseColor.jpeg"
    },
    {
      "uri": "NES_DGray_Mat_baseColor.jpeg"
    },
    {
      "uri": "NES_AV_S_Mat_baseColor.jpeg"
    }
  ],
  "materials": [
    {
      "doubleSided": true,
      "emissiveFactor": [
        0,
        0,
        0
      ],
      "name": "NES_DGray_Mat",
      "pbrMetallicRoughness": {
        "baseColorFactor": [
          1,
          1,
          1,
          1
        ],
        "baseColorTexture": {
          "index": 1,
          "texCoord": 0
        },
        "metallicFactor": 0,
        "roughnessFactor": 0.59999999999999998
      }
    },
    {
      "doubleSided": true,
      "emissiveFactor": [
        0,
        0,
        0
      ],
      "name": "NES_Black_Mat",
      "pbrMetallicRoughness": {
        "baseColorFactor": [
          0.017647099999999999,
          0.017647099999999999,
          0.017647099999999999,
          1
        ],
        "metallicFactor": 0,
        "roughnessFactor": 0.59999999999999998
      }
    },
    {
      "doubleSided": true,
      "emissiveFactor": [
        0,
        0,
        0
      ],
      "name": "NES_Gray_Mat",
      "pbrMetallicRoughness": {
        "baseColorFactor": [
          1,
          1,
          1,
          1
        ],
        "baseColorTexture": {
          "index": 0,
          "texCoord": 0
        },
        "metallicFactor": 0,
        "roughnessFactor": 0.59999999999999998
      }
    },
    {
      "doubleSided": true,
      "emissiveFactor": [
        0,
        0,
        0
      ],
      "name": "NES_PowerButton_Mat",
      "pbrMetallicRoughness": {
        "baseColorFactor": [
          0.611765,
          0,
          0,
          1
        ],
        "metallicFactor": 0,
        "roughnessFactor": 0.89426287370000002
      }
    },
    {
      "doubleSided": true,
      "emissiveFactor": [
        0,
        0,
        0
      ],
      "name": "NES_AV_R_Mat",
      "pbrMetallicRoughness": {
        "baseColorFactor": [
          0.48999999999999999,
          0,
          0,
          1
        ],
        "metallicFactor": 0,
        "roughnessFactor": 0.59999999999999998
      }
    },
    {
      "doubleSided": true,
      "emissiveFactor": [
        0,
        0,
        0
      ],
      "name": "lambert1",
      "pbrMetallicRoughness": {
        "baseColorFactor": [
          0.5,
          0.5,
          0.5,
          1
        ],
        "metallicFactor": 0,
        "roughnessFactor": 0.59999999999999998
      }
    },
    {
      "doubleSided": true,
      "emissiveFactor": [
        0,
        0,
        0
      ],
      "name": "NES_AV_S_Mat",
      "pbrMetallicRoughness": {
        "baseColorFactor": [
          1,
          1,
          1,
          1
        ],
        "baseColorTexture": {
          "index": 2,
          "texCoord": 0
        },
        "metallicFactor": 0,
        "roughnessFactor": 0.93308458329999999
      }
    },
    {
      "doubleSided": true,
      "emissiveFactor": [
        0,
        0,
        0
      ],
      "name": "NES_AV_Y_Mat",
      "pbrMetallicRoughness": {
        "baseColorFactor": [
          0.40600000000000003,
          0.40600000000000003,
          0,
          1
        ],
        "metallicFactor": 0,
        "roughnessFactor": 0.59999999999999998
      }
    }
  ],
  "meshes": [
    {
      "name": "NES_Console_NES_DGray_Mat_0",
      "primitives": [
        {
          "attributes": {
            "NORMAL": 1,
            "POSITION": 0,
            "TANGENT": 2,
            "TEXCOORD_0": 3
          },
          "indices": 4,
          "material": 0,
          "mode": 4
        }
      ]
    },
    {
      "name": "NES_Console_NES_Black_Mat_0",
      "primitives": [
        {
          "attributes": {
            "NORMAL": 6,
            "POSITION": 5,
            "TANGENT": 7
          },
          "indices": 8,
          "material": 1,
          "mode": 4
        }
      ]
    },
    {
      "name": "NES_Console_NES_Gray_Mat_0",
      "primitives": [
        {
          "attributes": {
            "NORMAL": 10,
            "POSITION": 9,
            "TANGENT": 11,
            "TEXCOORD_0": 12
          },
          "indices": 13,
          "material": 2,
          "mode": 4
        }
      ]
    },
    {
      "name": "NES_Console_NES_PowerButton_Mat_0",
      "primitives": [
        {
          "attributes": {
            "NORMAL": 15,
            "POSITION": 14,
            "TANGENT": 16
          },
          "indices": 17,
          "material": 3,
          "mode": 4
        }
      ]
    },
    {
      "name": "Red_AV_NES_AV_R_Mat_0",
      "primitives": [
        {
          "attributes": {
            "NORMAL": 19,
            "POSITION": 18,
            "TANGENT": 20
          },
          "indices": 21,
          "material": 4,
          "mode": 4
        }
      ]
    },
    {
      "name": "Red_AV_lambert1_0",
      "primitives": [
        {
          "attributes": {
            "NORMAL": 23,
            "POSITION": 22,
            "TANGENT": 24
          },
          "indices": 25,
          "material": 5,
          "mode": 4
        }
      ]
    },
    {
      "name": "Red_AV_NES_AV_S_Mat_0",
      "primitives": [
        {
          "attributes": {
            "NORMAL": 27,
            "POSITION": 26,
            "TANGENT": 28,
            "TEXCOORD_0": 29
          },
          "indices": 30,
          "material": 6,
          "mode": 4
        }
      ]
    },
    {
      "name": "Yellow_AV_NES_AV_Y_Mat_0",
      "primitives": [
        {
          "attributes": {
            "NORMAL": 32,
            "POSITION": 31,
            "TANGENT": 33
          },
          "indices": 34,
          "material": 7,
          "mode": 4
        }
      ]
    },
    {
      "name": "Yellow_AV_lambert1_0",
      "primitives": [
        {
          "attributes": {
            "NORMAL": 36,
            "POSITION": 35,
            "TANGENT": 37
          },
          "indices": 38,
          "material": 5,
          "mode": 4
        }
      ]
    },
    {
      "name": "Yellow_AV_NES_AV_S_Mat_0",
      "primitives": [
        {
          "attributes": {
            "NORMAL": 40,
            "POSITION": 39,
            "TANGENT": 41,
            "TEXCOORD_0": 42
          },
          "indices": 43,
          "material": 6,
          "mode": 4
        }
      ]
    }
  ],
  "nodes": [
    {
      "children": [
        1
      ],
      "name": "RootNode (gltf orientation matrix)",
      "rotation": [
        -0.70710678118654746,
        -0,
        -0,
        0.70710678118654757
      ]
    },
    {
      "children": [
        2
      ],
      "name": "RootNode (model correction matrix)"
    },
    {
      "children": [
        3
      ],
      "matrix": [
        1,
        0,
        0,
        0,
        0,
        0,
        1,
        0,
        0,
        -1,
        0,
        0,
        0,
        0,
        0,
        1
      ],
      "name": "dd790c54232f4d5991ab9ee33e97b8c3.fbx"
    },
    {
      "children": [
        4
      ],
      "name": "RootNode"
    },
    {
      "children": [
        5,
        10
      ],
      "name": "NES_Group"
    },
    {
      "children": [
        6,
        7,
        8,
        9
      ],
      "name": "NES_Console"
    },
    {
      "mesh": 0,
      "name": "NES_Console_NES_DGray_Mat_0"
    },
    {
      "mesh": 1,
      "name": "NES_Console_NES_Black_Mat_0"
    },
    {
      "mesh": 2,
      "name": "NES_Console_NES_Gray_Mat_0"
    },
    {
      "mesh": 3,
      "name": "NES_Console_NES_PowerButton_Mat_0"
    },
    {
      "children": [
        11,
        15
      ],
      "name": "AV"
    },
    {
      "children": [
        12,
        13,
        14
      ],
      "name": "Red_AV"
    },
    {
      "mesh": 4,
      "name": "Red_AV_NES_AV_R_Mat_0"
    },
    {
      "mesh": 5,
      "name": "Red_AV_lambert1_0"
    },
    {
      "mesh": 6,
      "name": "Red_AV_NES_AV_S_Mat_0"
    },
    {
      "children": [
        16,
        17,
        18
      ],
      "name": "Yellow_AV"
    },
    {
      "mesh": 7,
      "name": "Yellow_AV_NES_AV_Y_Mat_0"
    },
    {
      "mesh": 8,
      "name": "Yellow_AV_lambert1_0"
    },
    {
      "mesh": 9,
      "name": "Yellow_AV_NES_AV_S_Mat_0"
    }
  ],
  "samplers": [
    {
      "magFilter": 9729,
      "minFilter": 9987,
      "wrapS": 10497,
      "wrapT": 10497
    }
  ],
  "scene": 0,
  "scenes": [
    {
      "name": "OSG_Scene",
      "nodes": [
        0
      ]
    }
  ],
  "textures": [
    {
      "sampler": 0,
      "source": 0
    },
    {
      "sampler": 0,
      "source": 1
    },
    {
      "sampler": 0,
      "source": 2
    }
  ]
}

