{
  "accessors": [
    {
      "bufferView": 2,
      "componentType": 5126,
      "count": 4967,
      "max": [
        0.80257201194763184,
        -0.57884001731872559,
        0.57780998945236206
      ],
      "min": [
        0.0137382997199893,
        -0.98510199785232544,
        -0.69138902425765991
      ],
      "type": "VEC3"
    },
    {
      "bufferView": 2,
      "byteOffset": 59604,
      "componentType": 5126,
      "count": 4967,
      "max": [
        0.99973201751708984,
        0.99980247020721436,
        0.99998766183853149
      ],
      "min": [
        -0.99977535009384155,
        -0.99994498491287231,
        -0.99996054172515869
      ],
      "type": "VEC3"
    },
    {
      "bufferView": 3,
      "componentType": 5126,
      "count": 4967,
      "max": [
        0.999714195728302,
        0.99597346782684326,
        0.99828463792800903,
        1
      ],
      "min": [
        -0.99910765886306763,
        -0.99905228614807129,
        -0.99796438217163086,
        1
      ],
      "type": "VEC4"
    },
    {
      "bufferView": 1,
      "componentType": 5126,
      "count": 4967,
      "max": [
        0.99976497888565063,
        0.98351800441741943
      ],
      "min": [
        0.00023489599698223174,
        0.00023489599698223174
      ],
      "type": "VEC2"
    },
    {
      "bufferView": 0,
      "componentType": 5125,
      "count": 26196,
      "max": [
        4966
      ],
      "min": [
        0
      ],
      "type": "SCALAR"
    },
    {
      "bufferView": 2,
      "byteOffset": 119208,
      "componentType": 5126,
      "count": 2940,
      "max": [
        -0.33504301309585571,
        0.40278699994087219,
        0.11071299761533737
      ],
      "min": [
        -1.0009200572967529,
        -0.52120000123977661,
        -0.11375399678945541
      ],
      "type": "VEC3"
    },
    {
      "bufferView": 2,
      "byteOffset": 154488,
      "componentType": 5126,
      "count": 2940,
      "max": [
        1,
        0.99971157312393188,
        0.9998365044593811
      ],
      "min": [
        -1,
        -0.99971145391464233,
        -0.99983662366867065
      ],
      "type": "VEC3"
    },
    {
      "bufferView": 3,
      "byteOffset": 79472,
      "componentType": 5126,
      "count": 2940,
      "max": [
        1,
        0.81993168592453003,
        0.99970459938049316,
        1
      ],
      "min": [
        -1,
        -0.89602005481719971,
        -0.99879753589630127,
        1
      ],
      "type": "VEC4"
    },
    {
      "bufferView": 1,
      "byteOffset": 39736,
      "componentType": 5126,
      "count": 2940,
      "max": [
        0.96539998054504395,
        0.99970000982284546
      ],
      "min": [
        0.0002998650015797466,
        0.0002998650015797466
      ],
      "type": "VEC2"
    },
    {
      "bufferView": 0,
      "byteOffset": 104784,
      "componentType": 5125,
      "count": 14490,
      "max": [
        2939
      ],
      "min": [
        0
      ],
      "type": "SCALAR"
    },
    {
      "bufferView": 2,
      "byteOffset": 189768,
      "componentType": 5126,
      "count": 6250,
      "max": [
        0.31535300612449646,
        0.98510199785232544,
        -0.011997300200164318
      ],
      "min": [
        -0.0047222101129591465,
        0.70637297630310059,
        -0.45354598760604858
      ],
      "type": "VEC3"
    },
    {
      "bufferView": 2,
      "byteOffset": 264768,
      "componentType": 5126,
      "count": 6250,
      "max": [
        0.99995577335357666,
        0.99996638298034668,
        0.99920535087585449
      ],
      "min": [
        -0.99983102083206177,
        -0.99999052286148071,
        -0.99921953678131104
      ],
      "type": "VEC3"
    },
    {
      "bufferView": 3,
      "byteOffset": 126512,
      "componentType": 5126,
      "count": 6250,
      "max": [
        0.99996674060821533,
        0.9954761266708374,
        0.99911308288574219,
        1
      ],
      "min": [
        -0.99989253282546997,
        -0.99996954202651978,
        -0.9986194372177124,
        1
      ],
      "type": "VEC4"
    },
    {
      "bufferView": 1,
      "byteOffset": 63256,
      "componentType": 5126,
      "count": 6250,
      "max": [
        0.53887498378753662,
        0.99989902973175049
      ],
      "min": [
        0.00010126300185220316,
        0.00010126300185220316
      ],
      "type": "VEC2"
    },
    {
      "bufferView": 0,
      "byteOffset": 162744,
      "componentType": 5125,
      "count": 35778,
      "max": [
        6249
      ],
      "min": [
        0
      ],
      "type": "SCALAR"
    },
    {
      "bufferView": 2,
      "byteOffset": 339768,
      "componentType": 5126,
      "count": 2599,
      "max": [
        0.50686401128768921,
        0.72787100076675415,
        0.17393000423908234
      ],
      "min": [
        0.056411299854516983,
        0.58966201543807983,
        -0.28178000450134277
      ],
      "type": "VEC3"
    },
    {
      "bufferView": 2,
      "byteOffset": 370956,
      "componentType": 5126,
      "count": 2599,
      "max": [
        1,
        0.99989122152328491,
        0.99981635808944702
      ],
      "min": [
        -1,
        -0.99900573492050171,
        -0.99971777200698853
      ],
      "type": "VEC3"
    },
    {
      "bufferView": 3,
      "byteOffset": 226512,
      "componentType": 5126,
      "count": 2599,
      "max": [
        0.91518020629882812,
        0.76821333169937134,
        0.71989494562149048,
        1
      ],
      "min": [
        -0.73102825880050659,
        -0.99981635808944702,
        -0.90548968315124512,
        1
      ],
      "type": "VEC4"
    },
    {
      "bufferView": 1,
      "byteOffset": 113256,
      "componentType": 5126,
      "count": 2599,
      "max": [
        0.80614501237869263,
        0.99990999698638916
      ],
      "min": [
        0.00031501599005423486,
        6.4976702560670674e-05
      ],
      "type": "VEC2"
    },
    {
      "bufferView": 0,
      "byteOffset": 305856,
      "componentType": 5125,
      "count": 9312,
      "max": [
        2598
      ],
      "min": [
        0
      ],
      "type": "SCALAR"
    },
    {
      "bufferView": 2,
      "byteOffset": 402144,
      "componentType": 5126,
      "count": 1380,
      "max": [
        1,
        0.24501900374889374,
        0.24683399498462677
      ],
      "min": [
        0.86442798376083374,
        -0.062008298933506012,
        -0.26945799589157104
      ],
      "type": "VEC3"
    },
    {
      "bufferView": 2,
      "byteOffset": 418704,
      "componentType": 5126,
      "count": 1380,
      "max": [
        0.9989476203918457,
        0.99727833271026611,
        0.99999874830245972
      ],
      "min": [
        -0.99955165386199951,
        -0.99719399213790894,
        -0.99999833106994629
      ],
      "type": "VEC3"
    },
    {
      "bufferView": 3,
      "byteOffset": 268096,
      "componentType": 5126,
      "count": 1380,
      "max": [
        0.99957507848739624,
        0.90153235197067261,
        0.99973410367965698,
        1
      ],
      "min": [
        -0.99984526634216309,
        -0.88805454969406128,
        -0.99994909763336182,
        -1
      ],
      "type": "VEC4"
    },
    {
      "bufferView": 1,
      "byteOffset": 134048,
      "componentType": 5126,
      "count": 1380,
      "max": [
        0.99987602233886719,
        0.85310101509094238
      ],
      "min": [
        0.00012402700667735189,
        0.00012402700667735189
      ],
      "type": "VEC2"
    },
    {
      "bufferView": 0,
      "byteOffset": 343104,
      "componentType": 5125,
      "count": 7680,
      "max": [
        1379
      ],
      "min": [
        0
      ],
      "type": "SCALAR"
    },
    {
      "bufferView": 2,
      "byteOffset": 435264,
      "componentType": 5126,
      "count": 8297,
      "max": [
        0.98149901628494263,
        0.64606398344039917,
        0.69970297813415527
      ],
      "min": [
        -0.41822400689125061,
        -0.76441401243209839,
        -0.69970297813415527
      ],
      "type": "VEC3"
    },
    {
      "bufferView": 2,
      "byteOffset": 534828,
      "componentType": 5126,
      "count": 8297,
      "max": [
        1,
        0.99997049570083618,
        0.99974513053894043
      ],
      "min": [
        -1,
        -0.99997049570083618,
        -0.99974513053894043
      ],
      "type": "VEC3"
    },
    {
      "bufferView": 3,
      "byteOffset": 290176,
      "componentType": 5126,
      "count": 8297,
      "max": [
        1,
        0.27062666416168213,
        0.99966394901275635,
        1
      ],
      "min": [
        -1,
        -0.27376970648765564,
        -0.99922341108322144,
        1
      ],
      "type": "VEC4"
    },
    {
      "bufferView": 1,
      "byteOffset": 145088,
      "componentType": 5126,
      "count": 8297,
      "max": [
        1,
        1
      ],
      "min": [
        0,
        0
      ],
      "type": "VEC2"
    },
    {
      "bufferView": 0,
      "byteOffset": 373824,
      "componentType": 5125,
      "count": 47616,
      "max": [
        8296
      ],
      "min": [
        0
      ],
      "type": "SCALAR"
    }
  ],
  "asset": {
    "extras": {
      "author": "JoaquínM (https://sketchfab.com/JoaquinM)",
      "license": "CC-BY-ND-4.0 (http://creativecommons.org/licenses/by-nd/4.0/)",
      "source": "https://sketchfab.com/3d-models/bob-omb-fanart-0567ea8ef8ab41bbb19ef256b0414bfb",
      "title": "Bob-Omb Fanart"
    },
    "generator": "Sketchfab-7.91.0",
    "version": "2.0"
  },
  "bufferViews": [
    {
      "buffer": 0,
      "byteLength": 564288,
      "byteOffset": 0,
      "name": "floatBufferViews",
      "target": 34963
    },
    {
      "buffer": 0,
      "byteLength": 211464,
      "byteOffset": 564288,
      "byteStride": 8,
      "name": "floatBufferViews",
      "target": 34962
    },
    {
      "buffer": 0,
      "byteLength": 634392,
      "byteOffset": 775752,
      "byteStride": 12,
      "name": "floatBufferViews",
      "target": 34962
    },
    {
      "buffer": 0,
      "byteLength": 422928,
      "byteOffset": 1410144,
      "byteStride": 16,
      "name": "floatBufferViews",
      "target": 34962
    }
  ],
  "buffers": [
    {
      "byteLength": 1833072,
      "uri": "scene.bin"
    }
  ],
  "images": [
    {
      "uri": "textures/Material_001_baseColor.jpeg"
    },
    {
      "uri": "textures/Material_001_metallicRoughness.png"
    },
    {
      "uri": "textures/Material_001_normal.png"
    },
    {
      "uri": "textures/ojos_baseColor.jpeg"
    },
    {
      "uri": "textures/ojos_metallicRoughness.png"
    },
    {
      "uri": "textures/ojos_normal.png"
    },
    {
      "uri": "textures/Material_baseColor.jpeg"
    },
    {
      "uri": "textures/Material_metallicRoughness.png"
    },
    {
      "uri": "textures/mecha_baseColor.jpeg"
    },
    {
      "uri": "textures/mecha_metallicRoughness.png"
    },
    {
      "uri": "textures/mecha_emissive.jpeg"
    },
    {
      "uri": "textures/mecha_normal.png"
    },
    {
      "uri": "textures/Material_002_baseColor.jpeg"
    },
    {
      "uri": "textures/Material_002_metallicRoughness.png"
    },
    {
      "uri": "textures/Material_002_normal.png"
    },
    {
      "uri": "textures/Material_005_baseColor.jpeg"
    },
    {
      "uri": "textures/Material_005_metallicRoughness.png"
    },
    {
      "uri": "textures/Material_005_normal.png"
    }
  ],
  "materials": [
    {
      "doubleSided": true,
      "name": "Material_001",
      "normalTexture": {
        "index": 2,
        "scale": 1,
        "texCoord": 0
      },
      "occlusionTexture": {
        "index": 1,
        "strength": 1,
        "texCoord": 0
      },
      "pbrMetallicRoughness": {
        "baseColorFactor": [
          1,
          1,
          1,
          1
        ],
        "baseColorTexture": {
          "index": 0,
          "texCoord": 0
        },
        "metallicFactor": 1,
        "metallicRoughnessTexture": {
          "index": 1,
          "texCoord": 0
        },
        "roughnessFactor": 1
      }
    },
    {
      "doubleSided": true,
      "name": "ojos",
      "normalTexture": {
        "index": 5,
        "scale": 1,
        "texCoord": 0
      },
      "occlusionTexture": {
        "index": 4,
        "strength": 1,
        "texCoord": 0
      },
      "pbrMetallicRoughness": {
        "baseColorFactor": [
          1,
          1,
          1,
          1
        ],
        "baseColorTexture": {
          "index": 3,
          "texCoord": 0
        },
        "metallicFactor": 1,
        "metallicRoughnessTexture": {
          "index": 4,
          "texCoord": 0
        },
        "roughnessFactor": 1
      }
    },
    {
      "doubleSided": true,
      "name": "Material",
      "normalTexture": {
        "index": 2,
        "scale": 1,
        "texCoord": 0
      },
      "pbrMetallicRoughness": {
        "baseColorFactor": [
          1,
          1,
          1,
          1
        ],
        "baseColorTexture": {
          "index": 6,
          "texCoord": 0
        },
        "metallicFactor": 1,
        "metallicRoughnessTexture": {
          "index": 7,
          "texCoord": 0
        },
        "roughnessFactor": 1
      }
    },
    {
      "doubleSided": true,
      "emissiveFactor": [
        1,
        1,
        1
      ],
      "emissiveTexture": {
        "index": 10,
        "texCoord": 0
      },
      "name": "mecha",
      "normalTexture": {
        "index": 11,
        "scale": 1,
        "texCoord": 0
      },
      "occlusionTexture": {
        "index": 9,
        "strength": 1,
        "texCoord": 0
      },
      "pbrMetallicRoughness": {
        "baseColorFactor": [
          1,
          1,
          1,
          1
        ],
        "baseColorTexture": {
          "index": 8,
          "texCoord": 0
        },
        "metallicFactor": 1,
        "metallicRoughnessTexture": {
          "index": 9,
          "texCoord": 0
        },
        "roughnessFactor": 1
      }
    },
    {
      "doubleSided": true,
      "name": "Material_002",
      "normalTexture": {
        "index": 14,
        "scale": 1,
        "texCoord": 0
      },
      "pbrMetallicRoughness": {
        "baseColorFactor": [
          1,
          1,
          1,
          1
        ],
        "baseColorTexture": {
          "index": 12,
          "texCoord": 0
        },
        "metallicFactor": 1,
        "metallicRoughnessTexture": {
          "index": 13,
          "texCoord": 0
        },
        "roughnessFactor": 1
      }
    },
    {
      "doubleSided": true,
      "name": "Material_005",
      "normalTexture": {
        "index": 17,
        "scale": 1,
        "texCoord": 0
      },
      "occlusionTexture": {
        "index": 16,
        "strength": 1,
        "texCoord": 0
      },
      "pbrMetallicRoughness": {
        "baseColorFactor": [
          1,
          1,
          1,
          1
        ],
        "baseColorTexture": {
          "index": 15,
          "texCoord": 0
        },
        "metallicFactor": 1,
        "metallicRoughnessTexture": {
          "index": 16,
          "texCoord": 0
        },
        "roughnessFactor": 1
      }
    }
  ],
  "meshes": [
    {
      "name": "defaultMaterial",
      "primitives": [
        {
          "attributes": {
            "NORMAL": 1,
            "POSITION": 0,
            "TANGENT": 2,
            "TEXCOORD_0": 3
          },
          "indices": 4,
          "material": 5,
          "mode": 4
        }
      ]
    },
    {
      "name": "defaultMaterial",
      "primitives": [
        {
          "attributes": {
            "NORMAL": 6,
            "POSITION": 5,
            "TANGENT": 7,
            "TEXCOORD_0": 8
          },
          "indices": 9,
          "material": 4,
          "mode": 4
        }
      ]
    },
    {
      "name": "defaultMaterial",
      "primitives": [
        {
          "attributes": {
            "NORMAL": 11,
            "POSITION": 10,
            "TANGENT": 12,
            "TEXCOORD_0": 13
          },
          "indices": 14,
          "material": 3,
          "mode": 4
        }
      ]
    },
    {
      "name": "defaultMaterial",
      "primitives": [
        {
          "attributes": {
            "NORMAL": 16,
            "POSITION": 15,
            "TANGENT": 17,
            "TEXCOORD_0": 18
          },
          "indices": 19,
          "material": 2,
          "mode": 4
        }
      ]
    },
    {
      "name": "defaultMaterial",
      "primitives": [
        {
          "attributes": {
            "NORMAL": 21,
            "POSITION": 20,
            "TANGENT": 22,
            "TEXCOORD_0": 23
          },
          "indices": 24,
          "material": 1,
          "mode": 4
        }
      ]
    },
    {
      "name": "defaultMaterial",
      "primitives": [
        {
          "attributes": {
            "NORMAL": 26,
            "POSITION": 25,
            "TANGENT": 27,
            "TEXCOORD_0": 28
          },
          "indices": 29,
          "material": 0,
          "mode": 4
        }
      ]
    }
  ],
  "nodes": [
    {
      "children": [
        1
      ],
      "name": "RootNode (gltf orientation matrix)",
      "rotation": [
        -0.70710678118654746,
        -0,
        -0,
        0.70710678118654757
      ]
    },
    {
      "children": [
        2
      ],
      "name": "RootNode (model correction matrix)"
    },
    {
      "children": [
        3,
        5,
        7,
        9,
        11,
        13
      ],
      "matrix": [
        1,
        0,
        0,
        0,
        0,
        -4.3711390063094768e-08,
        0.999999999999999,
        0,
        0,
        -0.999999999999999,
        -4.3711390063094768e-08,
        0,
        0,
        0,
        0,
        1
      ],
      "name": "Collada visual scene group"
    },
    {
      "children": [
        4
      ],
      "name": "pies"
    },
    {
      "mesh": 0,
      "name": "defaultMaterial"
    },
    {
      "children": [
        6
      ],
      "name": "conexion"
    },
    {
      "mesh": 1,
      "name": "defaultMaterial"
    },
    {
      "children": [
        8
      ],
      "name": "mecha"
    },
    {
      "mesh": 2,
      "name": "defaultMaterial"
    },
    {
      "children": [
        10
      ],
      "name": "cabeza"
    },
    {
      "mesh": 3,
      "name": "defaultMaterial"
    },
    {
      "children": [
        12
      ],
      "name": "ojos"
    },
    {
      "mesh": 4,
      "name": "defaultMaterial"
    },
    {
      "children": [
        14
      ],
      "name": "bombas"
    },
    {
      "mesh": 5,
      "name": "defaultMaterial"
    }
  ],
  "samplers": [
    {
      "magFilter": 9729,
      "minFilter": 9987,
      "wrapS": 10497,
      "wrapT": 10497
    }
  ],
  "scene": 0,
  "scenes": [
    {
      "name": "OSG_Scene",
      "nodes": [
        0
      ]
    }
  ],
  "textures": [
    {
      "sampler": 0,
      "source": 0
    },
    {
      "sampler": 0,
      "source": 1
    },
    {
      "sampler": 0,
      "source": 2
    },
    {
      "sampler": 0,
      "source": 3
    },
    {
      "sampler": 0,
      "source": 4
    },
    {
      "sampler": 0,
      "source": 5
    },
    {
      "sampler": 0,
      "source": 6
    },
    {
      "sampler": 0,
      "source": 7
    },
    {
      "sampler": 0,
      "source": 8
    },
    {
      "sampler": 0,
      "source": 9
    },
    {
      "sampler": 0,
      "source": 10
    },
    {
      "sampler": 0,
      "source": 11
    },
    {
      "sampler": 0,
      "source": 12
    },
    {
      "sampler": 0,
      "source": 13
    },
    {
      "sampler": 0,
      "source": 14
    },
    {
      "sampler": 0,
      "source": 15
    },
    {
      "sampler": 0,
      "source": 16
    },
    {
      "sampler": 0,
      "source": 17
    }
  ]
}

