<svg width="21" height="30" viewBox="0 0 21 30" fill="none" xmlns="http://www.w3.org/2000/svg">
<path d="M1.14026 9.22872C1.14026 2.53723 5.7786 1.09738 9 1H11V6C10.0421 6 9.05913 7.12323 9 7.5V11C9 12.1574 10.0417 13.0151 10.5 13V18C4.93004 18 2.65302 16.4344 1.5 15.5L1.14026 9.22872Z" fill="#FCFCFC"/>
<path d="M20.3318 8.17813C20.3318 5.01883 18.7066 3.05688 16.7037 1.91932C14.7334 0.800247 12.3938 0.46986 10.8318 0.502123C9.26981 0.46986 6.93015 0.800247 4.95985 1.91932C2.957 3.05688 1.33179 5.01883 1.33179 8.17813V17.4715C1.33179 18.8208 1.82232 21.7843 3.22481 24.4252C4.63291 27.0767 7.02066 29.5 10.8318 29.5C14.6429 29.5 17.0307 27.0767 18.4388 24.4252C19.8413 21.7843 20.3318 18.8208 20.3318 17.4715V8.17813Z" stroke="white"/>
<path d="M1.66357 16C1.66357 16 4.87637 18.3967 10.8318 18.3967C16.6305 18.3967 20 16 20 16" stroke="white" stroke-width="1.01869"/>
<path d="M10.2996 12.8858L10.2996 18H11.4526L11.4526 12.8576C11.8314 12.7268 12.1762 12.4724 12.4226 12.0944C12.6291 11.7777 12.7387 11.4069 12.7387 11.0286V7.97136C12.7387 7.59306 12.6291 7.22231 12.4226 6.90557C12.1762 6.52763 11.8314 6.27324 11.4526 6.14239L11.4526 1H10.2996L10.2996 6.11419C9.88614 6.23453 9.50644 6.49833 9.2409 6.90557C9.03437 7.22231 8.92483 7.59306 8.92483 7.97136V11.0286C8.92483 11.4069 9.03437 11.7777 9.2409 12.0944C9.50644 12.5017 9.88614 12.7655 10.2996 12.8858Z" stroke="white" stroke-width="1.15302"/>
</svg>
