{
  "accessors": [
    {
      "bufferView": 2,
      "componentType": 5126,
      "count": 105,
      "max": [
        10,
        10,
        54.230922698974609
      ],
      "min": [
        -10,
        -10,
        0.73293942213058472
      ],
      "type": "VEC3"
    },
    {
      "bufferView": 2,
      "byteOffset": 1260,
      "componentType": 5126,
      "count": 105,
      "max": [
        1,
        1,
        1.1307969671747742e-08
      ],
      "min": [
        -1,
        -1,
        -1.1278105560563745e-08
      ],
      "type": "VEC3"
    },
    {
      "bufferView": 3,
      "componentType": 5126,
      "count": 105,
      "max": [
        1,
        1,
        9.6442338559654672e-09,
        1
      ],
      "min": [
        -1,
        -1,
        -9.6442356323223066e-09,
        1
      ],
      "type": "VEC4"
    },
    {
      "bufferView": 1,
      "componentType": 5126,
      "count": 105,
      "max": [
        1,
        1
      ],
      "min": [
        0,
        0
      ],
      "type": "VEC2"
    },
    {
      "bufferView": 0,
      "componentType": 5125,
      "count": 480,
      "max": [
        104
      ],
      "min": [
        0
      ],
      "type": "SCALAR"
    },
    {
      "bufferView": 2,
      "byteOffset": 2520,
      "componentType": 5126,
      "count": 121,
      "max": [
        5.1659111976623535,
        5.1659107208251953,
        56.443199157714844
      ],
      "min": [
        -5.1659111976623535,
        -5.1659116744995117,
        54.693199157714844
      ],
      "type": "VEC3"
    },
    {
      "bufferView": 2,
      "byteOffset": 3972,
      "componentType": 5126,
      "count": 121,
      "max": [
        0.91269850730895996,
        0.91269850730895996,
        1
      ],
      "min": [
        -0.91269844770431519,
        -0.91269850730895996,
        0.38221034407615662
      ],
      "type": "VEC3"
    },
    {
      "bufferView": 3,
      "byteOffset": 1680,
      "componentType": 5126,
      "count": 121,
      "max": [
        1,
        0.62527942657470703,
        0.92407530546188354,
        1
      ],
      "min": [
        -0.62527948617935181,
        -0.62527942657470703,
        -0.92407530546188354,
        -1
      ],
      "type": "VEC4"
    },
    {
      "bufferView": 0,
      "byteOffset": 1920,
      "componentType": 5125,
      "count": 300,
      "max": [
        120
      ],
      "min": [
        0
      ],
      "type": "SCALAR"
    },
    {
      "bufferView": 2,
      "byteOffset": 5424,
      "componentType": 5126,
      "count": 100,
      "max": [
        10,
        10,
        54.693199157714844
      ],
      "min": [
        -10,
        -10,
        54.230922698974609
      ],
      "type": "VEC3"
    },
    {
      "bufferView": 2,
      "byteOffset": 6624,
      "componentType": 5126,
      "count": 100,
      "max": [
        0.58403891324996948,
        0.58403885364532471,
        1
      ],
      "min": [
        -0.58403885364532471,
        -0.58403891324996948,
        0.81172561645507812
      ],
      "type": "VEC3"
    },
    {
      "bufferView": 3,
      "byteOffset": 3616,
      "componentType": 5126,
      "count": 100,
      "max": [
        1,
        0.41180053353309631,
        0.58403885364532471,
        1
      ],
      "min": [
        0.8117256760597229,
        -0.40002653002738953,
        -0.58403891324996948,
        1
      ],
      "type": "VEC4"
    },
    {
      "bufferView": 0,
      "byteOffset": 3120,
      "componentType": 5125,
      "count": 480,
      "max": [
        99
      ],
      "min": [
        0
      ],
      "type": "SCALAR"
    },
    {
      "bufferView": 2,
      "byteOffset": 7824,
      "componentType": 5126,
      "count": 101,
      "max": [
        10,
        10,
        0.73293954133987427
      ],
      "min": [
        -10,
        -10,
        0.27635076642036438
      ],
      "type": "VEC3"
    },
    {
      "bufferView": 2,
      "byteOffset": 9036,
      "componentType": 5126,
      "count": 101,
      "max": [
        0.66126561164855957,
        0.66126561164855957,
        -0.75015181303024292
      ],
      "min": [
        -0.66126549243927002,
        -0.66126549243927002,
        -1
      ],
      "type": "VEC3"
    },
    {
      "bufferView": 3,
      "byteOffset": 5216,
      "componentType": 5126,
      "count": 101,
      "max": [
        1,
        0.0034208705183118582,
        0.66126555204391479,
        -1
      ],
      "min": [
        0.7501518726348877,
        -0.0034210572484880686,
        -0.66126549243927002,
        -1
      ],
      "type": "VEC4"
    },
    {
      "bufferView": 0,
      "byteOffset": 5040,
      "componentType": 5125,
      "count": 540,
      "max": [
        100
      ],
      "min": [
        0
      ],
      "type": "SCALAR"
    }
  ],
  "asset": {
    "extras": {
      "author": "Logan Smith (https://sketchfab.com/lsmith17)",
      "license": "CC-BY-4.0 (http://creativecommons.org/licenses/by/4.0/)",
      "source": "https://sketchfab.com/models/6f8f3f6cbff341cc961fff59a0230ec5",
      "title": "Battery"
    },
    "generator": "Sketchfab-3.20.7",
    "version": "2.0"
  },
  "bufferViews": [
    {
      "buffer": 0,
      "byteLength": 7200,
      "byteOffset": 0,
      "name": "floatBufferViews",
      "target": 34963
    },
    {
      "buffer": 0,
      "byteLength": 840,
      "byteOffset": 7200,
      "byteStride": 8,
      "name": "floatBufferViews",
      "target": 34962
    },
    {
      "buffer": 0,
      "byteLength": 10248,
      "byteOffset": 8040,
      "byteStride": 12,
      "name": "floatBufferViews",
      "target": 34962
    },
    {
      "buffer": 0,
      "byteLength": 6832,
      "byteOffset": 18288,
      "byteStride": 16,
      "name": "floatBufferViews",
      "target": 34962
    }
  ],
  "buffers": [
    {
      "byteLength": 25120,
      "uri": "scene.bin"
    }
  ],
  "images": [
    {
      "uri": "textures/Material_2_baseColor.jpg"
    }
  ],
  "materials": [
    {
      "doubleSided": true,
      "emissiveFactor": [
        0,
        0,
        0
      ],
      "name": "RootNode",
      "pbrMetallicRoughness": {
        "baseColorFactor": [
          0.5,
          0.5,
          0.5,
          1
        ],
        "metallicFactor": 0,
        "roughnessFactor": 0.59999999999999998
      }
    },
    {
      "doubleSided": true,
      "name": "Material_2",
      "pbrMetallicRoughness": {
        "baseColorFactor": [
          1,
          1,
          1,
          1
        ],
        "baseColorTexture": {
          "index": 0,
          "texCoord": 0
        },
        "metallicFactor": 0,
        "roughnessFactor": 0.59999999999999998
      }
    },
    {
      "doubleSided": true,
      "emissiveFactor": [
        0,
        0,
        0
      ],
      "name": "Material_4",
      "pbrMetallicRoughness": {
        "baseColorFactor": [
          0.082352900000000007,
          0.027451,
          0.0039215700000000001,
          1
        ],
        "metallicFactor": 0,
        "roughnessFactor": 0.59999999999999998
      }
    },
    {
      "doubleSided": true,
      "emissiveFactor": [
        0,
        0,
        0
      ],
      "name": "Material_3",
      "pbrMetallicRoughness": {
        "baseColorFactor": [
          0,
          0,
          0,
          1
        ],
        "metallicFactor": 0,
        "roughnessFactor": 0.59999999999999998
      }
    }
  ],
  "meshes": [
    {
      "name": "ChamferCyl001_Material #2_0",
      "primitives": [
        {
          "attributes": {
            "NORMAL": 1,
            "POSITION": 0,
            "TANGENT": 2,
            "TEXCOORD_0": 3
          },
          "indices": 4,
          "material": 1,
          "mode": 4
        }
      ]
    },
    {
      "name": "Metal__0",
      "primitives": [
        {
          "attributes": {
            "NORMAL": 6,
            "POSITION": 5,
            "TANGENT": 7
          },
          "indices": 8,
          "material": 0,
          "mode": 4
        }
      ]
    },
    {
      "name": "Top_Material #4_0",
      "primitives": [
        {
          "attributes": {
            "NORMAL": 10,
            "POSITION": 9,
            "TANGENT": 11
          },
          "indices": 12,
          "material": 2,
          "mode": 4
        }
      ]
    },
    {
      "name": "Bottom_Material #3_0",
      "primitives": [
        {
          "attributes": {
            "NORMAL": 14,
            "POSITION": 13,
            "TANGENT": 15
          },
          "indices": 16,
          "material": 3,
          "mode": 4
        }
      ]
    }
  ],
  "nodes": [
    {
      "children": [
        1
      ],
      "name": "RootNode (gltf orientation matrix)",
      "rotation": [
        -0.70710678118654746,
        -0,
        -0,
        0.70710678118654757
      ]
    },
    {
      "children": [
        2
      ],
      "name": "RootNode (model correction matrix)"
    },
    {
      "children": [
        3
      ],
      "matrix": [
        1,
        0,
        0,
        0,
        0,
        0,
        1,
        0,
        0,
        -1,
        0,
        0,
        0,
        0,
        0,
        1
      ],
      "name": "5cd941e539164c2ab8b0d9aff8f64c96.fbx"
    },
    {
      "children": [
        4,
        6,
        8,
        10
      ],
      "name": "RootNode"
    },
    {
      "children": [
        5
      ],
      "matrix": [
        1,
        0,
        0,
        0,
        0,
        2.2204460492503131e-16,
        -1,
        0,
        0,
        1,
        2.2204460492503131e-16,
        0,
        -0.76514410972595215,
        0,
        -1.1052207946777344,
        1
      ],
      "name": "ChamferCyl001"
    },
    {
      "mesh": 0,
      "name": "ChamferCyl001_Material #2_0"
    },
    {
      "children": [
        7
      ],
      "matrix": [
        1,
        0,
        0,
        0,
        0,
        2.2204460492503131e-16,
        -1,
        0,
        0,
        1,
        2.2204460492503131e-16,
        0,
        -0.76514410972595215,
        0,
        -1.1052207946777344,
        1
      ],
      "name": "Metal"
    },
    {
      "mesh": 1,
      "name": "Metal__0"
    },
    {
      "children": [
        9
      ],
      "matrix": [
        1,
        0,
        0,
        0,
        0,
        2.2204460492503131e-16,
        -1,
        0,
        0,
        1,
        2.2204460492503131e-16,
        0,
        -0.76514410972595215,
        0,
        -1.1052207946777344,
        1
      ],
      "name": "Top"
    },
    {
      "mesh": 2,
      "name": "Top_Material #4_0"
    },
    {
      "children": [
        11
      ],
      "matrix": [
        1,
        0,
        0,
        0,
        0,
        2.2204460492503131e-16,
        -1,
        0,
        0,
        1,
        2.2204460492503131e-16,
        0,
        -0.76514410972595215,
        0,
        -1.1052207946777344,
        1
      ],
      "name": "Bottom"
    },
    {
      "mesh": 3,
      "name": "Bottom_Material #3_0"
    }
  ],
  "samplers": [
    {
      "magFilter": 9729,
      "minFilter": 9987,
      "wrapS": 10497,
      "wrapT": 10497
    }
  ],
  "scene": 0,
  "scenes": [
    {
      "name": "OSG_Scene",
      "nodes": [
        0
      ]
    }
  ],
  "textures": [
    {
      "sampler": 0,
      "source": 0
    }
  ]
}

