{
  "accessors": [
    {
      "bufferView": 2,
      "componentType": 5126,
      "count": 5773,
      "max": [
        7.276212215423584,
        8.9424867630004883,
        -9.0037508010864258
      ],
      "min": [
        -7.276212215423584,
        -8.9507780075073242,
        -11.511345863342285
      ],
      "type": "VEC3"
    },
    {
      "bufferView": 2,
      "byteOffset": 69276,
      "componentType": 5126,
      "count": 5773,
      "max": [
        1,
        1,
        0.97362488508224487
      ],
      "min": [
        -1,
        -1,
        -0.97641795873641968
      ],
      "type": "VEC3"
    },
    {
      "bufferView": 3,
      "componentType": 5126,
      "count": 5773,
      "max": [
        0.88928866386413574,
        0.71530479192733765,
        0.99835819005966187,
        1
      ],
      "min": [
        -0.64010804891586304,
        -1,
        -0.99690663814544678,
        -1
      ],
      "type": "VEC4"
    },
    {
      "bufferView": 1,
      "componentType": 5126,
      "count": 5773,
      "max": [
        1,
        0.77366864681243896
      ],
      "min": [
        0,
        0
      ],
      "type": "VEC2"
    },
    {
      "bufferView": 0,
      "componentType": 5125,
      "count": 52224,
      "max": [
        5772
      ],
      "min": [
        0
      ],
      "type": "SCALAR"
    },
    {
      "bufferView": 2,
      "byteOffset": 138552,
      "componentType": 5126,
      "count": 15,
      "max": [
        6.5329766273498535,
        8.7318000793457031,
        -8.7193326950073242
      ],
      "min": [
        -7.1439518928527832,
        -8.4064779281616211,
        -10.56233024597168
      ],
      "type": "VEC3"
    },
    {
      "bufferView": 2,
      "byteOffset": 138732,
      "componentType": 5126,
      "count": 15,
      "max": [
        0,
        0,
        1
      ],
      "min": [
        0,
        0,
        1
      ],
      "type": "VEC3"
    },
    {
      "bufferView": 3,
      "byteOffset": 92368,
      "componentType": 5126,
      "count": 15,
      "max": [
        1,
        0.83667796850204468,
        0,
        1
      ],
      "min": [
        0.54769515991210938,
        -0.11147697269916534,
        0,
        1
      ],
      "type": "VEC4"
    },
    {
      "bufferView": 1,
      "byteOffset": 46184,
      "componentType": 5126,
      "count": 15,
      "max": [
        0.82391321659088135,
        0.70305109024047852
      ],
      "min": [
        0.17059342563152313,
        0.049731548875570297
      ],
      "type": "VEC2"
    },
    {
      "bufferView": 0,
      "byteOffset": 208896,
      "componentType": 5125,
      "count": 96,
      "max": [
        14
      ],
      "min": [
        0
      ],
      "type": "SCALAR"
    },
    {
      "bufferView": 2,
      "byteOffset": 138912,
      "componentType": 5126,
      "count": 234,
      "max": [
        0.75816702842712402,
        4.3808541297912598,
        -8.6570453643798828
      ],
      "min": [
        -0.78083902597427368,
        2.8486640453338623,
        -9.3306798934936523
      ],
      "type": "VEC3"
    },
    {
      "bufferView": 2,
      "byteOffset": 141720,
      "componentType": 5126,
      "count": 234,
      "max": [
        0.99753820896148682,
        0.8374670147895813,
        1
      ],
      "min": [
        -0.97134894132614136,
        -0.99998724460601807,
        -1
      ],
      "type": "VEC3"
    },
    {
      "bufferView": 3,
      "byteOffset": 92608,
      "componentType": 5126,
      "count": 234,
      "max": [
        1,
        0.85504323244094849,
        0.99886828660964966,
        1
      ],
      "min": [
        0.004223416093736887,
        -0.94289427995681763,
        -0.99876809120178223,
        -1
      ],
      "type": "VEC4"
    },
    {
      "bufferView": 0,
      "byteOffset": 209280,
      "componentType": 5125,
      "count": 2784,
      "max": [
        233
      ],
      "min": [
        0
      ],
      "type": "SCALAR"
    },
    {
      "bufferView": 2,
      "byteOffset": 144528,
      "componentType": 5126,
      "count": 468,
      "max": [
        2.6386463642120361,
        4.3808541297912598,
        -8.6570453643798828
      ],
      "min": [
        -0.78083902597427368,
        2.8486640453338623,
        -9.3306798934936523
      ],
      "type": "VEC3"
    },
    {
      "bufferView": 2,
      "byteOffset": 150144,
      "componentType": 5126,
      "count": 468,
      "max": [
        0.99753820896148682,
        0.8374670147895813,
        1
      ],
      "min": [
        -0.99753826856613159,
        -0.99998724460601807,
        -1
      ],
      "type": "VEC3"
    },
    {
      "bufferView": 3,
      "byteOffset": 96352,
      "componentType": 5126,
      "count": 468,
      "max": [
        1,
        0.94289630651473999,
        0.99886834621429443,
        1
      ],
      "min": [
        0.0042219813913106918,
        -0.94289463758468628,
        -0.99886828660964966,
        -1
      ],
      "type": "VEC4"
    },
    {
      "bufferView": 0,
      "byteOffset": 220416,
      "componentType": 5125,
      "count": 5568,
      "max": [
        467
      ],
      "min": [
        0
      ],
      "type": "SCALAR"
    },
    {
      "bufferView": 2,
      "byteOffset": 155760,
      "componentType": 5126,
      "count": 3316,
      "max": [
        4.8418388366699219,
        5.0528769493103027,
        -8.8750667572021484
      ],
      "min": [
        -4.8418388366699219,
        1.0851730108261108,
        -10.142571449279785
      ],
      "type": "VEC3"
    },
    {
      "bufferView": 2,
      "byteOffset": 195552,
      "componentType": 5126,
      "count": 3316,
      "max": [
        0.99999392032623291,
        0.99998438358306885,
        0.99999791383743286
      ],
      "min": [
        -0.99999392032623291,
        -0.99999892711639404,
        -0.99999791383743286
      ],
      "type": "VEC3"
    },
    {
      "bufferView": 3,
      "byteOffset": 103840,
      "componentType": 5126,
      "count": 3316,
      "max": [
        0.99999982118606567,
        0.94325000047683716,
        0.99999862909317017,
        1
      ],
      "min": [
        5.8952564359060489e-06,
        -0.94552099704742432,
        -0.99999862909317017,
        -1
      ],
      "type": "VEC4"
    },
    {
      "bufferView": 1,
      "byteOffset": 46304,
      "componentType": 5126,
      "count": 3316,
      "max": [
        1,
        1
      ],
      "min": [
        0,
        -5.9604644775390625e-08
      ],
      "type": "VEC2"
    },
    {
      "bufferView": 0,
      "byteOffset": 242688,
      "componentType": 5125,
      "count": 39744,
      "max": [
        3315
      ],
      "min": [
        0
      ],
      "type": "SCALAR"
    }
  ],
  "asset": {
    "extras": {
      "author": "Bollicaokun (https://sketchfab.com/mariete.lopezsaez)",
      "license": "CC-BY-4.0 (http://creativecommons.org/licenses/by/4.0/)",
      "source": "https://sketchfab.com/models/8be5204fe4ab441482d601a8cb7b035c",
      "title": "Hylian Shield"
    },
    "generator": "Sketchfab-3.20.7",
    "version": "2.0"
  },
  "bufferViews": [
    {
      "buffer": 0,
      "byteLength": 401664,
      "byteOffset": 0,
      "name": "floatBufferViews",
      "target": 34963
    },
    {
      "buffer": 0,
      "byteLength": 72832,
      "byteOffset": 401664,
      "byteStride": 8,
      "name": "floatBufferViews",
      "target": 34962
    },
    {
      "buffer": 0,
      "byteLength": 235344,
      "byteOffset": 474496,
      "byteStride": 12,
      "name": "floatBufferViews",
      "target": 34962
    },
    {
      "buffer": 0,
      "byteLength": 156896,
      "byteOffset": 709840,
      "byteStride": 16,
      "name": "floatBufferViews",
      "target": 34962
    }
  ],
  "buffers": [
    {
      "byteLength": 866736,
      "uri": "scene.bin"
    }
  ],
  "extensionsRequired": [
    "KHR_materials_pbrSpecularGlossiness"
  ],
  "extensionsUsed": [
    "KHR_materials_pbrSpecularGlossiness"
  ],
  "images": [
    {
      "uri": "textures/lambert2_diffuse.jpg"
    },
    {
      "uri": "textures/Triangulolambert1_diffuse.jpg"
    },
    {
      "uri": "textures/lambert3_diffuse.jpg"
    }
  ],
  "materials": [
    {
      "doubleSided": true,
      "extensions": {
        "KHR_materials_pbrSpecularGlossiness": {
          "diffuseFactor": [
            1,
            1,
            1,
            1
          ],
          "diffuseTexture": {
            "index": 0,
            "texCoord": 0
          },
          "glossinessFactor": 0.75438262200000006,
          "specularFactor": [
            0.2334222561,
            0.2334222561,
            0.2334222561
          ]
        }
      },
      "name": "lambert2"
    },
    {
      "doubleSided": true,
      "emissiveFactor": [
        0,
        0,
        0
      ],
      "extensions": {
        "KHR_materials_pbrSpecularGlossiness": {
          "diffuseFactor": [
            1,
            1,
            1,
            1
          ],
          "diffuseTexture": {
            "index": 2,
            "texCoord": 0
          },
          "glossinessFactor": 0.83974847559999999,
          "specularFactor": [
            0.13586128049999999,
            0.13586128049999999,
            0.13586128049999999
          ]
        }
      },
      "name": "lambert3"
    },
    {
      "doubleSided": true,
      "emissiveFactor": [
        0,
        0,
        0
      ],
      "extensions": {
        "KHR_materials_pbrSpecularGlossiness": {
          "diffuseFactor": [
            0.76923299999999994,
            1,
            0,
            1
          ],
          "glossinessFactor": 0.68730945119999998,
          "specularFactor": [
            0.42244664630000001,
            0.42244664630000001,
            0.42244664630000001
          ]
        }
      },
      "name": "Triangulolambert2"
    },
    {
      "doubleSided": true,
      "emissiveFactor": [
        0,
        0,
        0
      ],
      "extensions": {
        "KHR_materials_pbrSpecularGlossiness": {
          "diffuseFactor": [
            1,
            1,
            1,
            1
          ],
          "diffuseTexture": {
            "index": 1,
            "texCoord": 0
          },
          "glossinessFactor": 0.79706554880000002,
          "specularFactor": [
            0.33098323169999999,
            0.33098323169999999,
            0.33098323169999999
          ]
        }
      },
      "name": "Triangulolambert1"
    }
  ],
  "meshes": [
    {
      "name": "Borde:Mesh_lambert2_0",
      "primitives": [
        {
          "attributes": {
            "NORMAL": 1,
            "POSITION": 0,
            "TANGENT": 2,
            "TEXCOORD_0": 3
          },
          "indices": 4,
          "material": 0,
          "mode": 4
        }
      ]
    },
    {
      "name": "Lo_azul:Mesh_lambert3_0",
      "primitives": [
        {
          "attributes": {
            "NORMAL": 6,
            "POSITION": 5,
            "TANGENT": 7,
            "TEXCOORD_0": 8
          },
          "indices": 9,
          "material": 1,
          "mode": 4
        }
      ]
    },
    {
      "name": "Triangulo:Mesh_Triangulo:lambert2_0",
      "primitives": [
        {
          "attributes": {
            "NORMAL": 11,
            "POSITION": 10,
            "TANGENT": 12
          },
          "indices": 13,
          "material": 2,
          "mode": 4
        }
      ]
    },
    {
      "name": "Lo_azul:Mesh1_Triangulo:lambert2_0",
      "primitives": [
        {
          "attributes": {
            "NORMAL": 15,
            "POSITION": 14,
            "TANGENT": 16
          },
          "indices": 17,
          "material": 2,
          "mode": 4
        }
      ]
    },
    {
      "name": "Eses:Mesh_Triangulo:lambert1_0",
      "primitives": [
        {
          "attributes": {
            "NORMAL": 19,
            "POSITION": 18,
            "TANGENT": 20,
            "TEXCOORD_0": 21
          },
          "indices": 22,
          "material": 3,
          "mode": 4
        }
      ]
    }
  ],
  "nodes": [
    {
      "children": [
        1
      ],
      "name": "RootNode (gltf orientation matrix)",
      "rotation": [
        -0.70710678118654746,
        -0,
        -0,
        0.70710678118654757
      ]
    },
    {
      "children": [
        2
      ],
      "name": "RootNode (model correction matrix)"
    },
    {
      "children": [
        3
      ],
      "matrix": [
        1,
        0,
        0,
        0,
        0,
        0,
        1,
        0,
        0,
        -1,
        0,
        0,
        0,
        0,
        0,
        1
      ],
      "name": "5f392ff29e314281ac1c005a3d966340.fbx"
    },
    {
      "children": [
        4,
        6,
        8,
        10,
        12
      ],
      "name": "RootNode"
    },
    {
      "children": [
        5
      ],
      "name": "Borde:Mesh"
    },
    {
      "mesh": 0,
      "name": "Borde:Mesh_lambert2_0"
    },
    {
      "children": [
        7
      ],
      "matrix": [
        1,
        0,
        0,
        0,
        0,
        0.92222219705581665,
        0,
        0,
        0,
        0,
        1,
        0,
        0.32221454381942749,
        -0.24166089296340942,
        0,
        1
      ],
      "name": "Lo_azul:Mesh"
    },
    {
      "mesh": 1,
      "name": "Lo_azul:Mesh_lambert3_0"
    },
    {
      "children": [
        9
      ],
      "name": "Triangulo:Mesh"
    },
    {
      "mesh": 2,
      "name": "Triangulo:Mesh_Triangulo:lambert2_0"
    },
    {
      "children": [
        11
      ],
      "matrix": [
        1,
        0,
        0,
        0,
        0,
        1,
        0,
        0,
        0,
        0,
        1,
        0,
        -0.92890363931655884,
        -1.6516096591949463,
        0,
        1
      ],
      "name": "Lo_azul:Mesh1"
    },
    {
      "mesh": 3,
      "name": "Lo_azul:Mesh1_Triangulo:lambert2_0"
    },
    {
      "children": [
        13
      ],
      "name": "Eses:Mesh"
    },
    {
      "mesh": 4,
      "name": "Eses:Mesh_Triangulo:lambert1_0"
    }
  ],
  "samplers": [
    {
      "magFilter": 9729,
      "minFilter": 9987,
      "wrapS": 10497,
      "wrapT": 10497
    }
  ],
  "scene": 0,
  "scenes": [
    {
      "name": "OSG_Scene",
      "nodes": [
        0
      ]
    }
  ],
  "textures": [
    {
      "sampler": 0,
      "source": 0
    },
    {
      "sampler": 0,
      "source": 1
    },
    {
      "sampler": 0,
      "source": 2
    }
  ]
}

