{
  "accessors": [
    {
      "bufferView": 2,
      "componentType": 5126,
      "count": 86,
      "max": [
        0.99999618530273438,
        1,
        0.9749298095703125
      ],
      "min": [
        -1.0000038146972656,
        -1,
        -2.076545238494873
      ],
      "type": "VEC3"
    },
    {
      "bufferView": 2,
      "byteOffset": 1032,
      "componentType": 5126,
      "count": 86,
      "max": [
        1,
        1,
        0.97492831945419312
      ],
      "min": [
        -1,
        -1,
        -1
      ],
      "type": "VEC3"
    },
    {
      "bufferView": 1,
      "componentType": 5126,
      "count": 86,
      "max": [
        0.65625,
        0.99608248472213745
      ],
      "min": [
        0.34375,
        0.0039175450801849365
      ],
      "type": "VEC2"
    },
    {
      "bufferView": 0,
      "componentType": 5125,
      "count": 204,
      "max": [
        85
      ],
      "min": [
        0
      ],
      "type": "SCALAR"
    },
    {
      "bufferView": 2,
      "byteOffset": 2064,
      "componentType": 5126,
      "count": 86,
      "max": [
        0.99999618530273438,
        1,
        0.9749298095703125
      ],
      "min": [
        -1.0000038146972656,
        -1,
        -2.076545238494873
      ],
      "type": "VEC3"
    },
    {
      "bufferView": 2,
      "byteOffset": 3096,
      "componentType": 5126,
      "count": 86,
      "max": [
        1,
        1,
        0.97492831945419312
      ],
      "min": [
        -1,
        -1,
        -1
      ],
      "type": "VEC3"
    },
    {
      "bufferView": 1,
      "byteOffset": 688,
      "componentType": 5126,
      "count": 86,
      "max": [
        0.65625,
        0.99608248472213745
      ],
      "min": [
        0.34375,
        0.0039175450801849365
      ],
      "type": "VEC2"
    },
    {
      "bufferView": 0,
      "byteOffset": 816,
      "componentType": 5125,
      "count": 204,
      "max": [
        85
      ],
      "min": [
        0
      ],
      "type": "SCALAR"
    },
    {
      "bufferView": 2,
      "byteOffset": 4128,
      "componentType": 5126,
      "count": 86,
      "max": [
        0.99999618530273438,
        1,
        0.9749298095703125
      ],
      "min": [
        -1.0000038146972656,
        -1,
        -2.076545238494873
      ],
      "type": "VEC3"
    },
    {
      "bufferView": 2,
      "byteOffset": 5160,
      "componentType": 5126,
      "count": 86,
      "max": [
        1,
        1,
        0.97492831945419312
      ],
      "min": [
        -1,
        -1,
        -1
      ],
      "type": "VEC3"
    },
    {
      "bufferView": 1,
      "byteOffset": 1376,
      "componentType": 5126,
      "count": 86,
      "max": [
        0.65625,
        0.99608248472213745
      ],
      "min": [
        0.34375,
        0.0039175450801849365
      ],
      "type": "VEC2"
    },
    {
      "bufferView": 0,
      "byteOffset": 1632,
      "componentType": 5125,
      "count": 204,
      "max": [
        85
      ],
      "min": [
        0
      ],
      "type": "SCALAR"
    },
    {
      "bufferView": 2,
      "byteOffset": 6192,
      "componentType": 5126,
      "count": 86,
      "max": [
        0.99999618530273438,
        1,
        0.9749298095703125
      ],
      "min": [
        -1.0000038146972656,
        -1,
        -2.076545238494873
      ],
      "type": "VEC3"
    },
    {
      "bufferView": 2,
      "byteOffset": 7224,
      "componentType": 5126,
      "count": 86,
      "max": [
        1,
        1,
        0.97492831945419312
      ],
      "min": [
        -1,
        -1,
        -1
      ],
      "type": "VEC3"
    },
    {
      "bufferView": 1,
      "byteOffset": 2064,
      "componentType": 5126,
      "count": 86,
      "max": [
        0.65625,
        0.99608248472213745
      ],
      "min": [
        0.34375,
        0.0039175450801849365
      ],
      "type": "VEC2"
    },
    {
      "bufferView": 0,
      "byteOffset": 2448,
      "componentType": 5125,
      "count": 204,
      "max": [
        85
      ],
      "min": [
        0
      ],
      "type": "SCALAR"
    },
    {
      "bufferView": 2,
      "byteOffset": 8256,
      "componentType": 5126,
      "count": 160,
      "max": [
        0.5,
        0.49999982118606567,
        0.53941863775253296
      ],
      "min": [
        -0.5,
        -0.49999982118606567,
        -0.5
      ],
      "type": "VEC3"
    },
    {
      "bufferView": 2,
      "byteOffset": 10176,
      "componentType": 5126,
      "count": 160,
      "max": [
        1,
        1,
        1
      ],
      "min": [
        -1,
        -1,
        -0.99998372793197632
      ],
      "type": "VEC3"
    },
    {
      "bufferView": 1,
      "byteOffset": 2752,
      "componentType": 5126,
      "count": 160,
      "max": [
        0.875,
        1
      ],
      "min": [
        0.125,
        -2.3283064365386963e-09
      ],
      "type": "VEC2"
    },
    {
      "bufferView": 0,
      "byteOffset": 3264,
      "componentType": 5125,
      "count": 327,
      "max": [
        159
      ],
      "min": [
        0
      ],
      "type": "SCALAR"
    }
  ],
  "asset": {
    "extras": {
      "author": "anujpatwari (https://sketchfab.com/anujpatwari)",
      "license": "CC-BY-4.0 (http://creativecommons.org/licenses/by/4.0/)",
      "source": "https://sketchfab.com/3d-models/folder-cabinet-b717e66170e24501abe1b1e7fdbc57b6",
      "title": "Folder Cabinet"
    },
    "generator": "Sketchfab-7.54.0",
    "version": "2.0"
  },
  "bufferViews": [
    {
      "buffer": 0,
      "byteLength": 4572,
      "byteOffset": 0,
      "name": "floatBufferViews",
      "target": 34963
    },
    {
      "buffer": 0,
      "byteLength": 4032,
      "byteOffset": 4572,
      "byteStride": 8,
      "name": "floatBufferViews",
      "target": 34962
    },
    {
      "buffer": 0,
      "byteLength": 12096,
      "byteOffset": 8604,
      "byteStride": 12,
      "name": "floatBufferViews",
      "target": 34962
    }
  ],
  "buffers": [
    {
      "byteLength": 20700,
      "uri": "scene.bin"
    }
  ],
  "materials": [
    {
      "doubleSided": true,
      "emissiveFactor": [
        0,
        0,
        0
      ],
      "name": "lambert1",
      "pbrMetallicRoughness": {
        "baseColorFactor": [
          0.5,
          0.5,
          0.5,
          1
        ],
        "metallicFactor": 0,
        "roughnessFactor": 0.59999999999999998
      }
    }
  ],
  "meshes": [
    {
      "name": "pCylinder4_lambert1_0",
      "primitives": [
        {
          "attributes": {
            "NORMAL": 1,
            "POSITION": 0,
            "TEXCOORD_0": 2
          },
          "indices": 3,
          "material": 0,
          "mode": 4
        }
      ]
    },
    {
      "name": "pCylinder3_lambert1_0",
      "primitives": [
        {
          "attributes": {
            "NORMAL": 5,
            "POSITION": 4,
            "TEXCOORD_0": 6
          },
          "indices": 7,
          "material": 0,
          "mode": 4
        }
      ]
    },
    {
      "name": "pCylinder2_lambert1_0",
      "primitives": [
        {
          "attributes": {
            "NORMAL": 9,
            "POSITION": 8,
            "TEXCOORD_0": 10
          },
          "indices": 11,
          "material": 0,
          "mode": 4
        }
      ]
    },
    {
      "name": "pCylinder1_lambert1_0",
      "primitives": [
        {
          "attributes": {
            "NORMAL": 13,
            "POSITION": 12,
            "TEXCOORD_0": 14
          },
          "indices": 15,
          "material": 0,
          "mode": 4
        }
      ]
    },
    {
      "name": "pCube1_lambert1_0",
      "primitives": [
        {
          "attributes": {
            "NORMAL": 17,
            "POSITION": 16,
            "TEXCOORD_0": 18
          },
          "indices": 19,
          "material": 0,
          "mode": 4
        }
      ]
    }
  ],
  "nodes": [
    {
      "children": [
        1
      ],
      "name": "RootNode (gltf orientation matrix)",
      "rotation": [
        -0.70710678118654746,
        -0,
        -0,
        0.70710678118654757
      ]
    },
    {
      "children": [
        2
      ],
      "name": "RootNode (model correction matrix)"
    },
    {
      "children": [
        3
      ],
      "matrix": [
        1,
        0,
        0,
        0,
        0,
        0,
        1,
        0,
        0,
        -1,
        0,
        0,
        0,
        0,
        0,
        1
      ],
      "name": "894e11f1f54144e696ec97f734607f82.fbx"
    },
    {
      "children": [
        4,
        6,
        8,
        10,
        12
      ],
      "name": "RootNode"
    },
    {
      "children": [
        5
      ],
      "matrix": [
        2.0279417977701143e-16,
        0.91330379247665405,
        0,
        0,
        -8.479365348815918,
        1.8827973288928308e-15,
        0,
        0,
        0,
        0,
        0.91330379247665405,
        0,
        0,
        -62.607799530029297,
        31.161954879760742,
        1
      ],
      "name": "pCylinder4"
    },
    {
      "mesh": 0,
      "name": "pCylinder4_lambert1_0"
    },
    {
      "children": [
        7
      ],
      "matrix": [
        2.0279417977701143e-16,
        0.91330379247665405,
        -3.1686590590158036e-18,
        0,
        -8.4772594076835066,
        1.8827973288928308e-15,
        0.18896998053022507,
        0,
        0.020353763847030668,
        -3.1686590590158036e-18,
        0.91307696370541436,
        0,
        0,
        -24.768905639648438,
        32.0013427734375,
        1
      ],
      "name": "pCylinder3"
    },
    {
      "mesh": 1,
      "name": "pCylinder3_lambert1_0"
    },
    {
      "children": [
        9
      ],
      "matrix": [
        2.0279417977701143e-16,
        0.91330379247665405,
        0,
        0,
        -8.479365348815918,
        1.8827973288928308e-15,
        0,
        0,
        0,
        0,
        0.91330379247665405,
        0,
        0,
        14.576051712036133,
        31.362865447998047,
        1
      ],
      "name": "pCylinder2"
    },
    {
      "mesh": 2,
      "name": "pCylinder2_lambert1_0"
    },
    {
      "children": [
        11
      ],
      "matrix": [
        2.0279417977701143e-16,
        0.91330379247665405,
        0,
        0,
        -8.479365348815918,
        1.8827973288928308e-15,
        0,
        0,
        0,
        0,
        0.91330379247665405,
        0,
        0,
        53.85382080078125,
        32.871192932128906,
        1
      ],
      "name": "pCylinder1"
    },
    {
      "mesh": 3,
      "name": "pCylinder1_lambert1_0"
    },
    {
      "children": [
        13
      ],
      "matrix": [
        57.674873352050781,
        0,
        0,
        0,
        0,
        156.09449768066406,
        0,
        0,
        0,
        0,
        57.674873352050781,
        0,
        0,
        0,
        0,
        1
      ],
      "name": "pCube1"
    },
    {
      "mesh": 4,
      "name": "pCube1_lambert1_0"
    }
  ],
  "scene": 0,
  "scenes": [
    {
      "name": "OSG_Scene",
      "nodes": [
        0
      ]
    }
  ]
}

