{
  "accessors": [
    {
      "bufferView": 2,
      "componentType": 5126,
      "count": 3704,
      "max": [
        -0.34885358810424805,
        0.05356593057513237,
        -1.0793595314025879
      ],
      "min": [
        -0.41996490955352783,
        0.00058749690651893616,
        -1.2143920660018921
      ],
      "type": "VEC3"
    },
    {
      "bufferView": 2,
      "byteOffset": 44448,
      "componentType": 5126,
      "count": 3704,
      "max": [
        0.98855847120285034,
        0.95638197660446167,
        0.94599354267120361
      ],
      "min": [
        -0.98855847120285034,
        -0.95638197660446167,
        -0.94599354267120361
      ],
      "type": "VEC3"
    },
    {
      "bufferView": 3,
      "componentType": 5126,
      "count": 3704,
      "max": [
        0.98856204748153687,
        0.95638811588287354,
        0.94599431753158569,
        1
      ],
      "min": [
        -0.010325128212571144,
        -0.95638811588287354,
        -0.29194134473800659,
        1
      ],
      "type": "VEC4"
    },
    {
      "bufferView": 1,
      "componentType": 5126,
      "count": 3704,
      "max": [
        0.74960935115814209,
        0.93320310115814209
      ],
      "min": [
        0.00039062500582076609,
        0.89492189884185791
      ],
      "type": "VEC2"
    },
    {
      "bufferView": 0,
      "componentType": 5125,
      "count": 5556,
      "max": [
        3703
      ],
      "min": [
        0
      ],
      "type": "SCALAR"
    }
  ],
  "asset": {
    "extras": {
      "author": "EventHorizonVirtualReality (https://sketchfab.com/EventHorizonVirtualReality)",
      "license": "CC-BY-4.0 (http://creativecommons.org/licenses/by/4.0/)",
      "source": "https://sketchfab.com/3d-models/link-obtains-the-triforce-2b5c79856d4a43f2add5a430ed75191b",
      "title": "Link obtains the TriForce"
    },
    "generator": "Sketchfab-7.4.0",
    "version": "2.0"
  },
  "bufferViews": [
    {
      "buffer": 0,
      "byteLength": 22224,
      "byteOffset": 0,
      "name": "floatBufferViews",
      "target": 34963
    },
    {
      "buffer": 0,
      "byteLength": 29632,
      "byteOffset": 22224,
      "byteStride": 8,
      "name": "floatBufferViews",
      "target": 34962
    },
    {
      "buffer": 0,
      "byteLength": 88896,
      "byteOffset": 51856,
      "byteStride": 12,
      "name": "floatBufferViews",
      "target": 34962
    },
    {
      "buffer": 0,
      "byteLength": 59264,
      "byteOffset": 140752,
      "byteStride": 16,
      "name": "floatBufferViews",
      "target": 34962
    }
  ],
  "buffers": [
    {
      "byteLength": 200016,
      "uri": "scene.bin"
    }
  ],
  "extensionsRequired": [
    "KHR_materials_pbrSpecularGlossiness"
  ],
  "extensionsUsed": [
    "KHR_materials_pbrSpecularGlossiness"
  ],
  "images": [
    {
      "uri": "textures/orcFace.0_diffuse.png"
    }
  ],
  "materials": [
    {
      "doubleSided": true,
      "emissiveFactor": [
        0,
        0,
        0
      ],
      "emissiveTexture": {
        "index": 0,
        "texCoord": 0
      },
      "extensions": {
        "KHR_materials_pbrSpecularGlossiness": {
          "diffuseFactor": [
            1,
            1,
            1,
            1
          ],
          "diffuseTexture": {
            "index": 0,
            "texCoord": 0
          },
          "glossinessFactor": 0,
          "specularFactor": [
            0,
            0,
            0
          ]
        }
      },
      "name": "orcFace.0"
    }
  ],
  "meshes": [
    {
      "primitives": [
        {
          "attributes": {
            "NORMAL": 1,
            "POSITION": 0,
            "TANGENT": 2,
            "TEXCOORD_0": 3
          },
          "indices": 4,
          "material": 0,
          "mode": 4
        }
      ]
    }
  ],
  "nodes": [
    {
      "children": [
        1
      ],
      "name": "RootNode (gltf orientation matrix)",
      "rotation": [
        -0.70710678118654746,
        -0,
        -0,
        0.70710678118654757
      ]
    },
    {
      "children": [
        2
      ],
      "matrix": [
        0.78307372331619263,
        0.60805666446685791,
        0.13062398135662079,
        0,
        -0.54226237535476685,
        0.77038305997848511,
        -0.33535277843475342,
        0,
        -0.30454397201538086,
        0.19177345931529999,
        0.93299299478530884,
        0,
        -0.41797930002212524,
        0.45989987254142761,
        -0.017555268481373787,
        1
      ],
      "name": "RootNode (model correction matrix)"
    },
    {
      "children": [
        3
      ],
      "name": "orcFace.obj.cleaner.materialmerger.gles"
    },
    {
      "mesh": 0,
      "name": ""
    }
  ],
  "samplers": [
    {
      "magFilter": 9729,
      "minFilter": 9987,
      "wrapS": 10497,
      "wrapT": 10497
    }
  ],
  "scene": 0,
  "scenes": [
    {
      "name": "OSG_Scene",
      "nodes": [
        0
      ]
    }
  ],
  "textures": [
    {
      "sampler": 0,
      "source": 0
    }
  ]
}

